<svg version="1.1" viewBox="0.0 0.0 600.0 371.0" fill="none" stroke="none" stroke-linecap="square" stroke-miterlimit="10" width="600" height="371" xmlns:xlink="http://www.w3.org/1999/xlink" xmlns="http://www.w3.org/2000/svg"><path fill="#ffffff" d="M0 0L600.0 0L600.0 371.0L0 371.0L0 0Z" fill-rule="nonzero"/><path fill="#ffffff" d="M18.55 54.916668L581.45 54.916668L581.45 328.0833L18.55 328.0833L18.55 54.916668Z" fill-rule="nonzero"/><path stroke="#cccccc" stroke-width="1.0" stroke-linecap="butt" d="M300.0 192.0C300.0 192.0 300.0 192.0 300.0 192.0C300.0 192.0 300.0 192.0 300.0 192.0C300.0 192.0 300.0 192.0 300.0 192.0C300.0 192.0 300.0 192.0 300.0 192.0" fill-rule="nonzero"/><path fill="#000000" d="M297.0625 185.35938Q297.0625 187.26562 296.40625 188.20312Q295.76562 189.125 294.375 189.125Q293.01562 189.125 292.35938 188.21875Q291.70312 187.3125 291.67188 185.5L291.67188 184.0625Q291.67188 182.17188 292.3125 181.26562Q292.96875 180.34375 294.35938 180.34375Q295.73438 180.34375 296.39062 181.23438Q297.04688 182.10938 297.0625 183.95312L297.0625 185.35938ZM295.96875 183.875Q295.96875 182.5 295.57812 181.875Q295.20312 181.23438 294.35938 181.23438Q293.53125 181.23438 293.14062 181.875Q292.76562 182.5 292.76562 183.79688L292.76562 185.53125Q292.76562 186.90625 293.15625 187.57812Q293.5625 188.23438 294.375 188.23438Q295.17188 188.23438 295.5625 187.60938Q295.95312 186.98438 295.96875 185.65625L295.96875 183.875Z" fill-rule="nonzero"/><path stroke="#cccccc" stroke-width="1.0" stroke-linecap="butt" d="M311.62036 192.0C311.62036 185.58224 306.41776 180.37962 300.0 180.37962C293.58224 180.37962 288.37964 185.58224 288.37964 192.0C288.37964 198.41776 293.58224 203.62038 300.0 203.62038C306.41776 203.62038 311.62036 198.41776 311.62036 192.0" fill-rule="nonzero"/><path fill="#000000" d="M295.26562 177.37962L294.1875 177.37962L294.1875 170.16087L292.0 170.95775L292.0 169.97337L295.10938 168.8015L295.26562 168.8015L295.26562 177.37962Z" fill-rule="nonzero"/><path stroke="#cccccc" stroke-width="1.0" stroke-linecap="butt" d="M323.24075 192.0C323.24075 179.16449 312.8355 168.75926 300.0 168.75926C287.1645 168.75926 276.75925 179.16449 276.75925 192.0C276.75925 204.83551 287.1645 215.24074 300.0 215.24074C312.8355 215.24074 323.24075 204.83551 323.24075 192.0" fill-rule="nonzero"/><path fill="#000000" d="M297.29688 165.75926L291.70312 165.75926L291.70312 164.97801L294.65625 161.69676Q295.3125 160.94676 295.5625 160.49364Q295.8125 160.02489 295.8125 159.52489Q295.8125 158.85301 295.40625 158.43114Q295.01562 157.99364 294.32812 157.99364Q293.53125 157.99364 293.07812 158.46239Q292.625 158.91551 292.625 159.74364L291.54688 159.74364Q291.54688 158.55614 292.29688 157.83739Q293.0625 157.10301 294.32812 157.10301Q295.53125 157.10301 296.21875 157.72801Q296.90625 158.35301 296.90625 159.39989Q296.90625 160.64989 295.29688 162.39989L293.01562 164.86864L297.29688 164.86864L297.29688 165.75926Z" fill-rule="nonzero"/><path stroke="#cccccc" stroke-width="1.0" stroke-linecap="butt" d="M334.8611 192.0C334.8611 172.74673 319.25327 157.13889 300.0 157.13889C280.74673 157.13889 265.1389 172.74673 265.1389 192.0C265.1389 211.25327 280.74673 226.86111 300.0 226.86111C319.25327 226.86111 334.8611 211.25327 334.8611 192.0" fill-rule="nonzero"/><path fill="#000000" d="M293.28125 149.34201L294.09375 149.34201Q294.875 149.32639 295.3125 148.93576Q295.75 148.54514 295.75 147.87326Q295.75 146.37326 294.25 146.37326Q293.54688 146.37326 293.125 146.77951Q292.71875 147.18576 292.71875 147.84201L291.625 147.84201Q291.625 146.82639 292.35938 146.15451Q293.10938 145.48264 294.25 145.48264Q295.45312 145.48264 296.14062 146.12326Q296.82812 146.76389 296.82812 147.90451Q296.82812 148.46701 296.46875 148.98264Q296.10938 149.49826 295.48438 149.76389Q296.1875 149.98264 296.5625 150.49826Q296.95312 151.01389 296.95312 151.76389Q296.95312 152.90451 296.20312 153.59201Q295.45312 154.26389 294.25 154.26389Q293.0625 154.26389 292.29688 153.60764Q291.54688 152.95139 291.54688 151.88889L292.64062 151.88889Q292.64062 152.56076 293.07812 152.96701Q293.51562 153.37326 294.26562 153.37326Q295.04688 153.37326 295.45312 152.96701Q295.875 152.54514 295.875 151.77951Q295.875 151.04514 295.42188 150.65451Q294.96875 150.24826 294.09375 150.23264L293.28125 150.23264L293.28125 149.34201Z" fill-rule="nonzero"/><path stroke="#cccccc" stroke-width="1.0" stroke-linecap="butt" d="M346.48148 192.0C346.48148 166.32898 325.67102 145.51852 300.0 145.51852C274.32898 145.51852 253.51852 166.32898 253.51852 192.0C253.51852 217.67102 274.32898 238.48148 300.0 238.48148C325.67102 238.48148 346.48148 217.67102 346.48148 192.0" fill-rule="nonzero"/><path fill="#000000" d="M296.28125 139.65915L297.46875 139.65915L297.46875 140.53415L296.28125 140.53415L296.28125 142.51852L295.20312 142.51852L295.20312 140.53415L291.3125 140.53415L291.3125 139.89352L295.125 133.98727L296.28125 133.98727L296.28125 139.65915ZM292.54688 139.65915L295.20312 139.65915L295.20312 135.47165L295.0625 135.70602L292.54688 139.65915Z" fill-rule="nonzero"/><path stroke="#cccccc" stroke-width="1.0" stroke-linecap="butt" d="M358.10184 192.0C358.10184 159.91124 332.08878 133.89815 300.0 133.89815C267.91122 133.89815 241.89815 159.91124 241.89815 192.0C241.89815 224.08876 267.91122 250.10185 300.0 250.10185C332.08878 250.10185 358.10184 224.08876 358.10184 192.0" fill-rule="nonzero"/><path fill="#000000" d="M292.20312 126.6169L292.64062 122.3669L297.01562 122.3669L297.01562 123.3669L293.5625 123.3669L293.29688 125.69502Q293.9375 125.32002 294.73438 125.32002Q295.89062 125.32002 296.57812 126.10127Q297.26562 126.8669 297.26562 128.1794Q297.26562 129.4919 296.54688 130.25752Q295.84375 131.02315 294.5625 131.02315Q293.4375 131.02315 292.71875 130.39815Q292.0 129.75752 291.90625 128.64815L292.92188 128.64815Q293.03125 129.38252 293.45312 129.75752Q293.875 130.13252 294.5625 130.13252Q295.3125 130.13252 295.75 129.6169Q296.1875 129.10127 296.1875 128.19502Q296.1875 127.33565 295.71875 126.82002Q295.25 126.3044 294.46875 126.3044Q293.76562 126.3044 293.35938 126.60127L293.07812 126.83565L292.20312 126.6169Z" fill-rule="nonzero"/><path stroke="#cccccc" stroke-width="1.0" stroke-linecap="butt" d="M369.72223 192.0C369.72223 153.49348 338.50653 122.27778 300.0 122.27778C261.49347 122.27778 230.27777 153.49348 230.27777 192.0C230.27777 230.50652 261.49347 261.72223 300.0 261.72223C338.50653 261.72223 369.72223 230.50652 369.72223 192.0" fill-rule="nonzero"/><path fill="#000000" d="M295.96875 110.74653L295.96875 111.65278L295.76562 111.65278Q294.5 111.68403 293.75 112.4184Q293.0 113.13715 292.875 114.44965Q293.5625 113.68403 294.71875 113.68403Q295.82812 113.68403 296.5 114.46528Q297.17188 115.24653 297.17188 116.49653Q297.17188 117.80903 296.45312 118.6059Q295.73438 119.40278 294.51562 119.40278Q293.29688 119.40278 292.53125 118.46528Q291.78125 117.51215 291.78125 116.02778L291.78125 115.62153Q291.78125 113.26215 292.78125 112.01215Q293.78125 110.76215 295.76562 110.74653L295.96875 110.74653ZM294.54688 114.59028Q293.98438 114.59028 293.51562 114.9184Q293.04688 115.24653 292.85938 115.76215L292.85938 116.15278Q292.85938 117.21528 293.32812 117.8559Q293.8125 118.49653 294.51562 118.49653Q295.25 118.49653 295.67188 117.96528Q296.09375 117.4184 296.09375 116.5434Q296.09375 115.6684 295.67188 115.13715Q295.25 114.59028 294.54688 114.59028Z" fill-rule="nonzero"/><path stroke="#cccccc" stroke-width="1.0" stroke-linecap="butt" d="M381.3426 192.0C381.3426 147.07573 344.9243 110.65741 300.0 110.65741C255.07573 110.65741 218.65741 147.07573 218.65741 192.0C218.65741 236.92427 255.07573 273.3426 300.0 273.3426C344.9243 273.3426 381.3426 236.92427 381.3426 192.0" fill-rule="nonzero"/><path fill="#000000" d="M297.21875 99.735535L293.6875 107.65741L292.54688 107.65741L296.0625 100.016785L291.45312 100.016785L291.45312 99.12616L297.21875 99.12616L297.21875 99.735535Z" fill-rule="nonzero"/><path stroke="#cccccc" stroke-width="1.0" stroke-linecap="butt" d="M392.96295 192.0C392.96295 140.65797 351.34204 99.03704 300.0 99.03704C248.65797 99.03704 207.03703 140.65797 207.03703 192.0C207.03703 243.34203 248.65797 284.96295 300.0 284.96295C351.34204 284.96295 392.96295 243.34203 392.96295 192.0" fill-rule="nonzero"/><path fill="#000000" d="M296.89062 89.72454Q296.89062 90.365166 296.54688 90.865166Q296.20312 91.365166 295.64062 91.646416Q296.29688 91.927666 296.6875 92.490166Q297.07812 93.03704 297.07812 93.740166Q297.07812 94.833916 296.32812 95.50579Q295.59375 96.16204 294.375 96.16204Q293.14062 96.16204 292.39062 95.50579Q291.65625 94.833916 291.65625 93.740166Q291.65625 93.03704 292.03125 92.490166Q292.40625 91.927666 293.07812 91.646416Q292.51562 91.365166 292.1875 90.865166Q291.85938 90.365166 291.85938 89.72454Q291.85938 88.646416 292.54688 88.021416Q293.23438 87.38079 294.375 87.38079Q295.5 87.38079 296.1875 88.021416Q296.89062 88.646416 296.89062 89.72454ZM296.0 93.708916Q296.0 92.990166 295.54688 92.552666Q295.09375 92.09954 294.35938 92.09954Q293.625 92.09954 293.17188 92.552666Q292.73438 92.990166 292.73438 93.72454Q292.73438 94.44329 293.17188 94.865166Q293.60938 95.271416 294.375 95.271416Q295.125 95.271416 295.5625 94.84954Q296.0 94.427666 296.0 93.708916ZM294.375 88.271416Q293.73438 88.271416 293.32812 88.677666Q292.9375 89.06829 292.9375 89.75579Q292.9375 90.396416 293.32812 90.802666Q293.71875 91.208916 294.35938 91.208916Q295.01562 91.208916 295.40625 90.802666Q295.79688 90.396416 295.79688 89.75579Q295.79688 89.09954 295.39062 88.69329Q294.98438 88.271416 294.375 88.271416Z" fill-rule="nonzero"/><path stroke="#cccccc" stroke-width="1.0" stroke-linecap="butt" d="M404.58334 192.0C404.58334 134.24022 357.75977 87.416664 300.0 87.416664C242.24022 87.416664 195.41667 134.24022 195.41667 192.0C195.41667 249.75978 242.24022 296.58334 300.0 296.58334C357.75977 296.58334 404.58334 249.75978 404.58334 192.0" fill-rule="nonzero"/><path fill="#000000" d="M295.85938 80.666664Q295.53125 81.072914 295.04688 81.322914Q294.57812 81.55729 294.01562 81.55729Q293.28125 81.55729 292.73438 81.197914Q292.1875 80.83854 291.89062 80.18229Q291.59375 79.510414 291.59375 78.71354Q291.59375 77.86979 291.90625 77.18229Q292.23438 76.49479 292.82812 76.135414Q293.4375 75.760414 294.23438 75.760414Q295.5 75.760414 296.21875 76.71354Q296.95312 77.666664 296.95312 79.291664L296.95312 79.604164Q296.95312 82.104164 295.96875 83.24479Q294.98438 84.385414 293.0 84.416664L292.78125 84.416664L292.78125 83.510414L293.01562 83.510414Q294.35938 83.479164 295.07812 82.80729Q295.79688 82.135414 295.85938 80.666664ZM294.1875 80.666664Q294.73438 80.666664 295.1875 80.33854Q295.65625 79.99479 295.875 79.510414L295.875 79.072914Q295.875 78.010414 295.40625 77.33854Q294.9375 76.666664 294.23438 76.666664Q293.51562 76.666664 293.07812 77.21354Q292.65625 77.760414 292.65625 78.666664Q292.65625 79.541664 293.0625 80.104164Q293.48438 80.666664 294.1875 80.666664Z" fill-rule="nonzero"/><path stroke="#cccccc" stroke-width="1.0" stroke-linecap="butt" d="M300.0 192.0L300.0 87.0" fill-rule="nonzero"/><path fill="#000000" d="M250.29688 41.375Q249.85938 42.0 249.07812 42.3125Q248.29688 42.625 247.26562 42.625Q246.23438 42.625 245.42188 42.140625Q244.60938 41.640625 244.17188 40.734375Q243.73438 39.828125 243.71875 38.640625L243.71875 37.90625Q243.71875 35.96875 244.60938 34.90625Q245.51562 33.84375 247.14062 33.84375Q248.48438 33.84375 249.29688 34.53125Q250.10938 35.21875 250.29688 36.46875L249.17188 36.46875Q248.84375 34.78125 247.15625 34.78125Q246.01562 34.78125 245.4375 35.578125Q244.85938 36.359375 244.84375 37.875L244.84375 38.5625Q244.84375 40.0 245.5 40.859375Q246.15625 41.703125 247.28125 41.703125Q247.90625 41.703125 248.375 41.5625Q248.85938 41.421875 249.17188 41.078125L249.17188 39.171875L247.20312 39.171875L247.20312 38.25L250.29688 38.25L250.29688 41.375ZM254.89062 37.125Q254.64062 37.09375 254.35938 37.09375Q253.28125 37.09375 252.90625 38.0L252.90625 42.5L251.82812 42.5L251.82812 36.15625L252.875 36.15625L252.89062 36.890625Q253.42188 36.046875 254.40625 36.046875Q254.71875 36.046875 254.89062 36.125L254.89062 37.125ZM255.53125 39.265625Q255.53125 38.34375 255.89062 37.59375Q256.26562 36.84375 256.92188 36.453125Q257.57812 36.046875 258.40625 36.046875Q259.70312 36.046875 260.5 36.9375Q261.3125 37.828125 261.3125 39.328125L261.3125 39.40625Q261.3125 40.328125 260.95312 41.0625Q260.59375 41.796875 259.9375 42.21875Q259.28125 42.625 258.42188 42.625Q257.14062 42.625 256.32812 41.734375Q255.53125 40.828125 255.53125 39.34375L255.53125 39.265625ZM256.625 39.40625Q256.625 40.453125 257.10938 41.09375Q257.60938 41.734375 258.42188 41.734375Q259.25 41.734375 259.73438 41.09375Q260.21875 40.4375 260.21875 39.265625Q260.21875 38.234375 259.71875 37.59375Q259.23438 36.9375 258.40625 36.9375Q257.60938 36.9375 257.10938 37.578125Q256.625 38.203125 256.625 39.40625ZM268.4375 41.0L269.65625 36.15625L270.73438 36.15625L268.89062 42.5L268.01562 42.5L266.46875 37.6875L264.96875 42.5L264.09375 42.5L262.25 36.15625L263.32812 36.15625L264.57812 40.90625L266.0625 36.15625L266.92188 36.15625L268.4375 41.0ZM273.29688 34.625L273.29688 36.15625L274.46875 36.15625L274.46875 37.0L273.29688 37.0L273.29688 40.921875Q273.29688 41.3125 273.45312 41.5Q273.60938 41.6875 273.98438 41.6875Q274.17188 41.6875 274.5 41.625L274.5 42.5Q274.07812 42.625 273.67188 42.625Q272.95312 42.625 272.57812 42.1875Q272.20312 41.734375 272.20312 40.921875L272.20312 37.0L271.04688 37.0L271.04688 36.15625L272.20312 36.15625L272.20312 34.625L273.29688 34.625ZM276.90625 36.921875Q277.625 36.046875 278.78125 36.046875Q280.79688 36.046875 280.8125 38.3125L280.8125 42.5L279.71875 42.5L279.71875 38.296875Q279.71875 37.625 279.40625 37.296875Q279.10938 36.96875 278.45312 36.96875Q277.92188 36.96875 277.51562 37.25Q277.125 37.53125 276.90625 37.984375L276.90625 42.5L275.82812 42.5L275.82812 33.5L276.90625 33.5L276.90625 36.921875ZM285.53125 39.265625Q285.53125 38.34375 285.89062 37.59375Q286.26562 36.84375 286.92188 36.453125Q287.57812 36.046875 288.40625 36.046875Q289.70312 36.046875 290.5 36.9375Q291.3125 37.828125 291.3125 39.328125L291.3125 39.40625Q291.3125 40.328125 290.95312 41.0625Q290.59375 41.796875 289.9375 42.21875Q289.28125 42.625 288.42188 42.625Q287.14062 42.625 286.32812 41.734375Q285.53125 40.828125 285.53125 39.34375L285.53125 39.265625ZM286.625 39.40625Q286.625 40.453125 287.10938 41.09375Q287.60938 41.734375 288.42188 41.734375Q289.25 41.734375 289.73438 41.09375Q290.21875 40.4375 290.21875 39.265625Q290.21875 38.234375 289.71875 37.59375Q289.23438 36.9375 288.40625 36.9375Q287.60938 36.9375 287.10938 37.578125Q286.625 38.203125 286.625 39.40625ZM298.17188 39.40625Q298.17188 40.84375 297.51562 41.734375Q296.85938 42.625 295.71875 42.625Q294.5625 42.625 293.90625 41.890625L293.90625 44.9375L292.82812 44.9375L292.82812 36.15625L293.8125 36.15625L293.85938 36.859375Q294.53125 36.046875 295.70312 36.046875Q296.84375 36.046875 297.5 36.90625Q298.17188 37.765625 298.17188 39.296875L298.17188 39.40625ZM297.09375 39.28125Q297.09375 38.203125 296.625 37.59375Q296.17188 36.96875 295.375 36.96875Q294.39062 36.96875 293.90625 37.828125L293.90625 40.859375Q294.39062 41.734375 295.39062 41.734375Q296.17188 41.734375 296.625 41.125Q297.09375 40.5 297.09375 39.28125ZM305.17188 39.40625Q305.17188 40.84375 304.51562 41.734375Q303.85938 42.625 302.71875 42.625Q301.5625 42.625 300.90625 41.890625L300.90625 44.9375L299.82812 44.9375L299.82812 36.15625L300.8125 36.15625L300.85938 36.859375Q301.53125 36.046875 302.70312 36.046875Q303.84375 36.046875 304.5 36.90625Q305.17188 37.765625 305.17188 39.296875L305.17188 39.40625ZM304.09375 39.28125Q304.09375 38.203125 303.625 37.59375Q303.17188 36.96875 302.375 36.96875Q301.39062 36.96875 300.90625 37.828125L300.90625 40.859375Q301.39062 41.734375 302.39062 41.734375Q303.17188 41.734375 303.625 41.125Q304.09375 40.5 304.09375 39.28125ZM306.53125 39.265625Q306.53125 38.34375 306.89062 37.59375Q307.26562 36.84375 307.92188 36.453125Q308.57812 36.046875 309.40625 36.046875Q310.70312 36.046875 311.5 36.9375Q312.3125 37.828125 312.3125 39.328125L312.3125 39.40625Q312.3125 40.328125 311.95312 41.0625Q311.59375 41.796875 310.9375 42.21875Q310.28125 42.625 309.42188 42.625Q308.14062 42.625 307.32812 41.734375Q306.53125 40.828125 306.53125 39.34375L306.53125 39.265625ZM307.625 39.40625Q307.625 40.453125 308.10938 41.09375Q308.60938 41.734375 309.42188 41.734375Q310.25 41.734375 310.73438 41.09375Q311.21875 40.4375 311.21875 39.265625Q311.21875 38.234375 310.71875 37.59375Q310.23438 36.9375 309.40625 36.9375Q308.60938 36.9375 308.10938 37.578125Q307.625 38.203125 307.625 39.40625ZM316.89062 37.125Q316.64062 37.09375 316.35938 37.09375Q315.28125 37.09375 314.90625 38.0L314.90625 42.5L313.82812 42.5L313.82812 36.15625L314.875 36.15625L314.89062 36.890625Q315.42188 36.046875 316.40625 36.046875Q316.71875 36.046875 316.89062 36.125L316.89062 37.125ZM319.29688 34.625L319.29688 36.15625L320.46875 36.15625L320.46875 37.0L319.29688 37.0L319.29688 40.921875Q319.29688 41.3125 319.45312 41.5Q319.60938 41.6875 319.98438 41.6875Q320.17188 41.6875 320.5 41.625L320.5 42.5Q320.07812 42.625 319.67188 42.625Q318.95312 42.625 318.57812 42.1875Q318.20312 41.734375 318.20312 40.921875L318.20312 37.0L317.04688 37.0L317.04688 36.15625L318.20312 36.15625L318.20312 34.625L319.29688 34.625ZM325.73438 41.875Q325.10938 42.625 323.875 42.625Q322.85938 42.625 322.32812 42.03125Q321.79688 41.4375 321.79688 40.28125L321.79688 36.15625L322.875 36.15625L322.875 40.25Q322.875 41.703125 324.04688 41.703125Q325.29688 41.703125 325.70312 40.765625L325.70312 36.15625L326.79688 36.15625L326.79688 42.5L325.76562 42.5L325.73438 41.875ZM329.84375 36.15625L329.875 36.953125Q330.60938 36.046875 331.78125 36.046875Q333.79688 36.046875 333.8125 38.3125L333.8125 42.5L332.71875 42.5L332.71875 38.296875Q332.71875 37.625 332.40625 37.296875Q332.10938 36.96875 331.45312 36.96875Q330.92188 36.96875 330.51562 37.25Q330.125 37.53125 329.90625 37.984375L329.90625 42.5L328.82812 42.5L328.82812 36.15625L329.84375 36.15625ZM337.0 42.5L335.92188 42.5L335.92188 36.15625L337.0 36.15625L337.0 42.5ZM335.82812 34.484375Q335.82812 34.21875 335.98438 34.03125Q336.15625 33.84375 336.46875 33.84375Q336.78125 33.84375 336.9375 34.03125Q337.10938 34.21875 337.10938 34.484375Q337.10938 34.734375 336.9375 34.921875Q336.78125 35.09375 336.46875 35.09375Q336.15625 35.09375 335.98438 34.921875Q335.82812 34.734375 335.82812 34.484375ZM340.29688 34.625L340.29688 36.15625L341.46875 36.15625L341.46875 37.0L340.29688 37.0L340.29688 40.921875Q340.29688 41.3125 340.45312 41.5Q340.60938 41.6875 340.98438 41.6875Q341.17188 41.6875 341.5 41.625L341.5 42.5Q341.07812 42.625 340.67188 42.625Q339.95312 42.625 339.57812 42.1875Q339.20312 41.734375 339.20312 40.921875L339.20312 37.0L338.04688 37.0L338.04688 36.15625L339.20312 36.15625L339.20312 34.625L340.29688 34.625ZM344.0 42.5L342.92188 42.5L342.92188 36.15625L344.0 36.15625L344.0 42.5ZM342.82812 34.484375Q342.82812 34.21875 342.98438 34.03125Q343.15625 33.84375 343.46875 33.84375Q343.78125 33.84375 343.9375 34.03125Q344.10938 34.21875 344.10938 34.484375Q344.10938 34.734375 343.9375 34.921875Q343.78125 35.09375 343.46875 35.09375Q343.15625 35.09375 342.98438 34.921875Q342.82812 34.734375 342.82812 34.484375ZM348.45312 42.625Q347.15625 42.625 346.34375 41.78125Q345.54688 40.921875 345.54688 39.5L345.54688 39.3125Q345.54688 38.359375 345.90625 37.625Q346.26562 36.875 346.90625 36.46875Q347.5625 36.046875 348.3125 36.046875Q349.54688 36.046875 350.23438 36.859375Q350.92188 37.671875 350.92188 39.1875L350.92188 39.640625L346.625 39.640625Q346.65625 40.578125 347.17188 41.15625Q347.70312 41.734375 348.51562 41.734375Q349.07812 41.734375 349.46875 41.5Q349.875 41.265625 350.1875 40.875L350.84375 41.390625Q350.04688 42.625 348.45312 42.625ZM348.3125 36.9375Q347.65625 36.9375 347.20312 37.421875Q346.76562 37.890625 346.67188 38.75L349.84375 38.75L349.84375 38.671875Q349.79688 37.84375 349.39062 37.390625Q349.0 36.9375 348.3125 36.9375ZM355.51562 40.8125Q355.51562 40.375 355.17188 40.140625Q354.84375 39.890625 354.01562 39.71875Q353.20312 39.546875 352.71875 39.296875Q352.23438 39.046875 352.0 38.71875Q351.78125 38.375 351.78125 37.90625Q351.78125 37.125 352.4375 36.59375Q353.09375 36.046875 354.125 36.046875Q355.20312 36.046875 355.85938 36.609375Q356.53125 37.15625 356.53125 38.015625L355.45312 38.015625Q355.45312 37.578125 355.0625 37.265625Q354.6875 36.9375 354.125 36.9375Q353.53125 36.9375 353.1875 37.203125Q352.85938 37.453125 352.85938 37.859375Q352.85938 38.25 353.17188 38.453125Q353.48438 38.65625 354.29688 38.84375Q355.10938 39.015625 355.60938 39.265625Q356.10938 39.515625 356.34375 39.875Q356.59375 40.234375 356.59375 40.734375Q356.59375 41.59375 355.90625 42.109375Q355.23438 42.625 354.15625 42.625Q353.39062 42.625 352.79688 42.359375Q352.21875 42.078125 351.89062 41.59375Q351.5625 41.109375 351.5625 40.546875L352.64062 40.546875Q352.67188 41.09375 353.07812 41.421875Q353.48438 41.734375 354.15625 41.734375Q354.76562 41.734375 355.14062 41.484375Q355.51562 41.234375 355.51562 40.8125Z" fill-rule="nonzero"/><path stroke="#cccccc" stroke-width="1.0" stroke-linecap="butt" d="M300.0 192.0L374.0 118.0" fill-rule="nonzero"/><path fill="#000000" d="M372.32812 84.8125L372.5 85.9375L372.73438 84.921875L374.42188 78.96875L375.375 78.96875L377.01562 84.921875L377.25 85.953125L377.4375 84.796875L378.76562 78.96875L379.89062 78.96875L377.82812 87.5L376.79688 87.5L375.03125 81.28125L374.90625 80.625L374.76562 81.28125L372.95312 87.5L371.92188 87.5L369.85938 78.96875L370.98438 78.96875L372.32812 84.8125ZM381.03125 84.265625Q381.03125 83.34375 381.39062 82.59375Q381.76562 81.84375 382.42188 81.453125Q383.07812 81.046875 383.90625 81.046875Q385.20312 81.046875 386.0 81.9375Q386.8125 82.828125 386.8125 84.328125L386.8125 84.40625Q386.8125 85.328125 386.45312 86.0625Q386.09375 86.796875 385.4375 87.21875Q384.78125 87.625 383.92188 87.625Q382.64062 87.625 381.82812 86.734375Q381.03125 85.828125 381.03125 84.34375L381.03125 84.265625ZM382.125 84.40625Q382.125 85.453125 382.60938 86.09375Q383.10938 86.734375 383.92188 86.734375Q384.75 86.734375 385.23438 86.09375Q385.71875 85.4375 385.71875 84.265625Q385.71875 83.234375 385.21875 82.59375Q384.73438 81.9375 383.90625 81.9375Q383.10938 81.9375 382.60938 82.578125Q382.125 83.203125 382.125 84.40625ZM391.39062 82.125Q391.14062 82.09375 390.85938 82.09375Q389.78125 82.09375 389.40625 83.0L389.40625 87.5L388.32812 87.5L388.32812 81.15625L389.375 81.15625L389.39062 81.890625Q389.92188 81.046875 390.90625 81.046875Q391.21875 81.046875 391.39062 81.125L391.39062 82.125ZM394.09375 84.5625L393.40625 85.265625L393.40625 87.5L392.32812 87.5L392.32812 78.5L393.40625 78.5L393.40625 83.9375L393.98438 83.25L395.96875 81.15625L397.28125 81.15625L394.8125 83.8125L397.57812 87.5L396.29688 87.5L394.09375 84.5625ZM399.5 87.5L398.42188 87.5L398.42188 81.15625L399.5 81.15625L399.5 87.5ZM398.32812 79.484375Q398.32812 79.21875 398.48438 79.03125Q398.65625 78.84375 398.96875 78.84375Q399.28125 78.84375 399.4375 79.03125Q399.60938 79.21875 399.60938 79.484375Q399.60938 79.734375 399.4375 79.921875Q399.28125 80.09375 398.96875 80.09375Q398.65625 80.09375 398.48438 79.921875Q398.32812 79.734375 398.32812 79.484375ZM402.34375 81.15625L402.375 81.953125Q403.10938 81.046875 404.28125 81.046875Q406.29688 81.046875 406.3125 83.3125L406.3125 87.5L405.21875 87.5L405.21875 83.296875Q405.21875 82.625 404.90625 82.296875Q404.60938 81.96875 403.95312 81.96875Q403.42188 81.96875 403.01562 82.25Q402.625 82.53125 402.40625 82.984375L402.40625 87.5L401.32812 87.5L401.32812 81.15625L402.34375 81.15625ZM408.0625 84.28125Q408.0625 82.796875 408.75 81.921875Q409.4375 81.046875 410.5625 81.046875Q411.71875 81.046875 412.375 81.859375L412.42188 81.15625L413.42188 81.15625L413.42188 87.34375Q413.42188 88.578125 412.6875 89.28125Q411.95312 90.0 410.73438 90.0Q410.04688 90.0 409.39062 89.703125Q408.73438 89.40625 408.39062 88.90625L408.95312 88.25Q409.64062 89.109375 410.65625 89.109375Q411.4375 89.109375 411.875 88.65625Q412.32812 88.21875 412.32812 87.40625L412.32812 86.859375Q411.67188 87.625 410.54688 87.625Q409.4375 87.625 408.75 86.734375Q408.0625 85.828125 408.0625 84.28125ZM409.15625 84.40625Q409.15625 85.46875 409.59375 86.09375Q410.03125 86.703125 410.82812 86.703125Q411.84375 86.703125 412.32812 85.765625L412.32812 82.875Q411.82812 81.96875 410.82812 81.96875Q410.04688 81.96875 409.59375 82.578125Q409.15625 83.1875 409.15625 84.40625ZM419.40625 81.921875Q420.125 81.046875 421.28125 81.046875Q423.29688 81.046875 423.3125 83.3125L423.3125 87.5L422.21875 87.5L422.21875 83.296875Q422.21875 82.625 421.90625 82.296875Q421.60938 81.96875 420.95312 81.96875Q420.42188 81.96875 420.01562 82.25Q419.625 82.53125 419.40625 82.984375L419.40625 87.5L418.32812 87.5L418.32812 78.5L419.40625 78.5L419.40625 81.921875ZM425.03125 84.265625Q425.03125 83.34375 425.39062 82.59375Q425.76562 81.84375 426.42188 81.453125Q427.07812 81.046875 427.90625 81.046875Q429.20312 81.046875 430.0 81.9375Q430.8125 82.828125 430.8125 84.328125L430.8125 84.40625Q430.8125 85.328125 430.45312 86.0625Q430.09375 86.796875 429.4375 87.21875Q428.78125 87.625 427.92188 87.625Q426.64062 87.625 425.82812 86.734375Q425.03125 85.828125 425.03125 84.34375L425.03125 84.265625ZM426.125 84.40625Q426.125 85.453125 426.60938 86.09375Q427.10938 86.734375 427.92188 86.734375Q428.75 86.734375 429.23438 86.09375Q429.71875 85.4375 429.71875 84.265625Q429.71875 83.234375 429.21875 82.59375Q428.73438 81.9375 427.90625 81.9375Q427.10938 81.9375 426.60938 82.578125Q426.125 83.203125 426.125 84.40625ZM436.23438 86.875Q435.60938 87.625 434.375 87.625Q433.35938 87.625 432.82812 87.03125Q432.29688 86.4375 432.29688 85.28125L432.29688 81.15625L433.375 81.15625L433.375 85.25Q433.375 86.703125 434.54688 86.703125Q435.79688 86.703125 436.20312 85.765625L436.20312 81.15625L437.29688 81.15625L437.29688 87.5L436.26562 87.5L436.23438 86.875ZM442.39062 82.125Q442.14062 82.09375 441.85938 82.09375Q440.78125 82.09375 440.40625 83.0L440.40625 87.5L439.32812 87.5L439.32812 81.15625L440.375 81.15625L440.39062 81.890625Q440.92188 81.046875 441.90625 81.046875Q442.21875 81.046875 442.39062 81.125L442.39062 82.125ZM447.01562 85.8125Q447.01562 85.375 446.67188 85.140625Q446.34375 84.890625 445.51562 84.71875Q444.70312 84.546875 444.21875 84.296875Q443.73438 84.046875 443.5 83.71875Q443.28125 83.375 443.28125 82.90625Q443.28125 82.125 443.9375 81.59375Q444.59375 81.046875 445.625 81.046875Q446.70312 81.046875 447.35938 81.609375Q448.03125 82.15625 448.03125 83.015625L446.95312 83.015625Q446.95312 82.578125 446.5625 82.265625Q446.1875 81.9375 445.625 81.9375Q445.03125 81.9375 444.6875 82.203125Q444.35938 82.453125 444.35938 82.859375Q444.35938 83.25 444.67188 83.453125Q444.98438 83.65625 445.79688 83.84375Q446.60938 84.015625 447.10938 84.265625Q447.60938 84.515625 447.84375 84.875Q448.09375 85.234375 448.09375 85.734375Q448.09375 86.59375 447.40625 87.109375Q446.73438 87.625 445.65625 87.625Q444.89062 87.625 444.29688 87.359375Q443.71875 87.078125 443.39062 86.59375Q443.0625 86.109375 443.0625 85.546875L444.14062 85.546875Q444.17188 86.09375 444.57812 86.421875Q444.98438 86.734375 445.65625 86.734375Q446.26562 86.734375 446.64062 86.484375Q447.01562 86.234375 447.01562 85.8125Z" fill-rule="nonzero"/><path stroke="#cccccc" stroke-width="1.0" stroke-linecap="butt" d="M300.0 192.0L405.0 192.0" fill-rule="nonzero"/><path fill="#000000" d="M407.32812 193.8125L407.5 194.9375L407.73438 193.92188L409.42188 187.96875L410.375 187.96875L412.01562 193.92188L412.25 194.95312L412.4375 193.79688L413.76562 187.96875L414.89062 187.96875L412.82812 196.5L411.79688 196.5L410.03125 190.28125L409.90625 189.625L409.76562 190.28125L407.95312 196.5L406.92188 196.5L404.85938 187.96875L405.98438 187.96875L407.32812 193.8125ZM416.03125 193.26562Q416.03125 192.34375 416.39062 191.59375Q416.76562 190.84375 417.42188 190.45312Q418.07812 190.04688 418.90625 190.04688Q420.20312 190.04688 421.0 190.9375Q421.8125 191.82812 421.8125 193.32812L421.8125 193.40625Q421.8125 194.32812 421.45312 195.0625Q421.09375 195.79688 420.4375 196.21875Q419.78125 196.625 418.92188 196.625Q417.64062 196.625 416.82812 195.73438Q416.03125 194.82812 416.03125 193.34375L416.03125 193.26562ZM417.125 193.40625Q417.125 194.45312 417.60938 195.09375Q418.10938 195.73438 418.92188 195.73438Q419.75 195.73438 420.23438 195.09375Q420.71875 194.4375 420.71875 193.26562Q420.71875 192.23438 420.21875 191.59375Q419.73438 190.9375 418.90625 190.9375Q418.10938 190.9375 417.60938 191.57812Q417.125 192.20312 417.125 193.40625ZM426.39062 191.125Q426.14062 191.09375 425.85938 191.09375Q424.78125 191.09375 424.40625 192.0L424.40625 196.5L423.32812 196.5L423.32812 190.15625L424.375 190.15625L424.39062 190.89062Q424.92188 190.04688 425.90625 190.04688Q426.21875 190.04688 426.39062 190.125L426.39062 191.125ZM429.09375 193.5625L428.40625 194.26562L428.40625 196.5L427.32812 196.5L427.32812 187.5L428.40625 187.5L428.40625 192.9375L428.98438 192.25L430.96875 190.15625L432.28125 190.15625L429.8125 192.8125L432.57812 196.5L431.29688 196.5L429.09375 193.5625ZM438.95312 196.625Q437.65625 196.625 436.84375 195.78125Q436.04688 194.92188 436.04688 193.5L436.04688 193.3125Q436.04688 192.35938 436.40625 191.625Q436.76562 190.875 437.40625 190.46875Q438.0625 190.04688 438.8125 190.04688Q440.04688 190.04688 440.73438 190.85938Q441.42188 191.67188 441.42188 193.1875L441.42188 193.64062L437.125 193.64062Q437.15625 194.57812 437.67188 195.15625Q438.20312 195.73438 439.01562 195.73438Q439.57812 195.73438 439.96875 195.5Q440.375 195.26562 440.6875 194.875L441.34375 195.39062Q440.54688 196.625 438.95312 196.625ZM438.8125 190.9375Q438.15625 190.9375 437.70312 191.42188Q437.26562 191.89062 437.17188 192.75L440.34375 192.75L440.34375 192.67188Q440.29688 191.84375 439.89062 191.39062Q439.5 190.9375 438.8125 190.9375ZM443.34375 190.15625L443.375 190.95312Q444.10938 190.04688 445.28125 190.04688Q447.29688 190.04688 447.3125 192.3125L447.3125 196.5L446.21875 196.5L446.21875 192.29688Q446.21875 191.625 445.90625 191.29688Q445.60938 190.96875 444.95312 190.96875Q444.42188 190.96875 444.01562 191.25Q443.625 191.53125 443.40625 191.98438L443.40625 196.5L442.32812 196.5L442.32812 190.15625L443.34375 190.15625ZM451.40625 195.03125L452.98438 190.15625L454.09375 190.15625L451.8125 196.5L450.98438 196.5L448.6875 190.15625L449.79688 190.15625L451.40625 195.03125ZM456.5 196.5L455.42188 196.5L455.42188 190.15625L456.5 190.15625L456.5 196.5ZM455.32812 188.48438Q455.32812 188.21875 455.48438 188.03125Q455.65625 187.84375 455.96875 187.84375Q456.28125 187.84375 456.4375 188.03125Q456.60938 188.21875 456.60938 188.48438Q456.60938 188.73438 456.4375 188.92188Q456.28125 189.09375 455.96875 189.09375Q455.65625 189.09375 455.48438 188.92188Q455.32812 188.73438 455.32812 188.48438ZM461.39062 191.125Q461.14062 191.09375 460.85938 191.09375Q459.78125 191.09375 459.40625 192.0L459.40625 196.5L458.32812 196.5L458.32812 190.15625L459.375 190.15625L459.39062 190.89062Q459.92188 190.04688 460.90625 190.04688Q461.21875 190.04688 461.39062 190.125L461.39062 191.125ZM462.03125 193.26562Q462.03125 192.34375 462.39062 191.59375Q462.76562 190.84375 463.42188 190.45312Q464.07812 190.04688 464.90625 190.04688Q466.20312 190.04688 467.0 190.9375Q467.8125 191.82812 467.8125 193.32812L467.8125 193.40625Q467.8125 194.32812 467.45312 195.0625Q467.09375 195.79688 466.4375 196.21875Q465.78125 196.625 464.92188 196.625Q463.64062 196.625 462.82812 195.73438Q462.03125 194.82812 462.03125 193.34375L462.03125 193.26562ZM463.125 193.40625Q463.125 194.45312 463.60938 195.09375Q464.10938 195.73438 464.92188 195.73438Q465.75 195.73438 466.23438 195.09375Q466.71875 194.4375 466.71875 193.26562Q466.71875 192.23438 466.21875 191.59375Q465.73438 190.9375 464.90625 190.9375Q464.10938 190.9375 463.60938 191.57812Q463.125 192.20312 463.125 193.40625ZM470.34375 190.15625L470.375 190.95312Q471.10938 190.04688 472.28125 190.04688Q474.29688 190.04688 474.3125 192.3125L474.3125 196.5L473.21875 196.5L473.21875 192.29688Q473.21875 191.625 472.90625 191.29688Q472.60938 190.96875 471.95312 190.96875Q471.42188 190.96875 471.01562 191.25Q470.625 191.53125 470.40625 191.98438L470.40625 196.5L469.32812 196.5L469.32812 190.15625L470.34375 190.15625ZM477.34375 190.15625L477.375 190.85938Q478.0625 190.04688 479.25 190.04688Q480.57812 190.04688 481.0625 191.0625Q481.375 190.60938 481.875 190.32812Q482.39062 190.04688 483.07812 190.04688Q485.17188 190.04688 485.20312 192.25L485.20312 196.5L484.125 196.5L484.125 192.3125Q484.125 191.64062 483.8125 191.3125Q483.5 190.96875 482.76562 190.96875Q482.15625 190.96875 481.75 191.32812Q481.35938 191.6875 481.29688 192.29688L481.29688 196.5L480.21875 196.5L480.21875 192.34375Q480.21875 190.96875 478.85938 190.96875Q477.79688 190.96875 477.40625 191.875L477.40625 196.5L476.3125 196.5L476.3125 190.15625L477.34375 190.15625ZM489.95312 196.625Q488.65625 196.625 487.84375 195.78125Q487.04688 194.92188 487.04688 193.5L487.04688 193.3125Q487.04688 192.35938 487.40625 191.625Q487.76562 190.875 488.40625 190.46875Q489.0625 190.04688 489.8125 190.04688Q491.04688 190.04688 491.73438 190.85938Q492.42188 191.67188 492.42188 193.1875L492.42188 193.64062L488.125 193.64062Q488.15625 194.57812 488.67188 195.15625Q489.20312 195.73438 490.01562 195.73438Q490.57812 195.73438 490.96875 195.5Q491.375 195.26562 491.6875 194.875L492.34375 195.39062Q491.54688 196.625 489.95312 196.625ZM489.8125 190.9375Q489.15625 190.9375 488.70312 191.42188Q488.26562 191.89062 488.17188 192.75L491.34375 192.75L491.34375 192.67188Q491.29688 191.84375 490.89062 191.39062Q490.5 190.9375 489.8125 190.9375ZM494.34375 190.15625L494.375 190.95312Q495.10938 190.04688 496.28125 190.04688Q498.29688 190.04688 498.3125 192.3125L498.3125 196.5L497.21875 196.5L497.21875 192.29688Q497.21875 191.625 496.90625 191.29688Q496.60938 190.96875 495.95312 190.96875Q495.42188 190.96875 495.01562 191.25Q494.625 191.53125 494.40625 191.98438L494.40625 196.5L493.32812 196.5L493.32812 190.15625L494.34375 190.15625ZM501.79688 188.625L501.79688 190.15625L502.96875 190.15625L502.96875 191.0L501.79688 191.0L501.79688 194.92188Q501.79688 195.3125 501.95312 195.5Q502.10938 195.6875 502.48438 195.6875Q502.67188 195.6875 503.0 195.625L503.0 196.5Q502.57812 196.625 502.17188 196.625Q501.45312 196.625 501.07812 196.1875Q500.70312 195.73438 500.70312 194.92188L500.70312 191.0L499.54688 191.0L499.54688 190.15625L500.70312 190.15625L500.70312 188.625L501.79688 188.625Z" fill-rule="nonzero"/><path stroke="#cccccc" stroke-width="1.0" stroke-linecap="butt" d="M300.0 192.0L374.0 266.0" fill-rule="nonzero"/><path fill="#000000" d="M395.5 301.70312Q394.0625 301.28125 393.39062 300.67188Q392.73438 300.0625 392.73438 299.17188Q392.73438 298.17188 393.53125 297.51562Q394.34375 296.84375 395.64062 296.84375Q396.51562 296.84375 397.20312 297.1875Q397.89062 297.53125 398.26562 298.125Q398.65625 298.71875 398.65625 299.4375L397.51562 299.4375Q397.51562 298.65625 397.01562 298.21875Q396.53125 297.78125 395.64062 297.78125Q394.8125 297.78125 394.34375 298.15625Q393.875 298.51562 393.875 299.15625Q393.875 299.6875 394.3125 300.04688Q394.76562 300.40625 395.82812 300.70312Q396.89062 301.0 397.48438 301.35938Q398.09375 301.71875 398.375 302.20312Q398.67188 302.6875 398.67188 303.32812Q398.67188 304.375 397.85938 305.0Q397.04688 305.625 395.70312 305.625Q394.8125 305.625 394.04688 305.28125Q393.29688 304.9375 392.875 304.35938Q392.46875 303.76562 392.46875 303.03125L393.59375 303.03125Q393.59375 303.79688 394.17188 304.25Q394.75 304.70312 395.70312 304.70312Q396.59375 304.70312 397.0625 304.34375Q397.53125 303.96875 397.53125 303.34375Q397.53125 302.71875 397.09375 302.375Q396.65625 302.03125 395.5 301.70312ZM403.73438 305.5Q403.64062 305.3125 403.57812 304.82812Q402.82812 305.625 401.78125 305.625Q400.84375 305.625 400.23438 305.09375Q399.64062 304.5625 399.64062 303.73438Q399.64062 302.75 400.39062 302.20312Q401.14062 301.65625 402.51562 301.65625L403.5625 301.65625L403.5625 301.15625Q403.5625 300.59375 403.21875 300.26562Q402.89062 299.92188 402.21875 299.92188Q401.64062 299.92188 401.25 300.21875Q400.85938 300.5 400.85938 300.92188L399.76562 300.92188Q399.76562 300.4375 400.09375 300.0Q400.4375 299.5625 401.01562 299.3125Q401.59375 299.04688 402.28125 299.04688Q403.39062 299.04688 404.0 299.59375Q404.625 300.14062 404.65625 301.09375L404.65625 304.01562Q404.65625 304.89062 404.875 305.40625L404.875 305.5L403.73438 305.5ZM401.9375 304.67188Q402.45312 304.67188 402.90625 304.40625Q403.35938 304.14062 403.5625 303.71875L403.5625 302.42188L402.71875 302.42188Q400.71875 302.42188 400.71875 303.59375Q400.71875 304.09375 401.0625 304.39062Q401.40625 304.67188 401.9375 304.67188ZM408.0 305.5L406.92188 305.5L406.92188 296.5L408.0 296.5L408.0 305.5ZM413.73438 305.5Q413.64062 305.3125 413.57812 304.82812Q412.82812 305.625 411.78125 305.625Q410.84375 305.625 410.23438 305.09375Q409.64062 304.5625 409.64062 303.73438Q409.64062 302.75 410.39062 302.20312Q411.14062 301.65625 412.51562 301.65625L413.5625 301.65625L413.5625 301.15625Q413.5625 300.59375 413.21875 300.26562Q412.89062 299.92188 412.21875 299.92188Q411.64062 299.92188 411.25 300.21875Q410.85938 300.5 410.85938 300.92188L409.76562 300.92188Q409.76562 300.4375 410.09375 300.0Q410.4375 299.5625 411.01562 299.3125Q411.59375 299.04688 412.28125 299.04688Q413.39062 299.04688 414.0 299.59375Q414.625 300.14062 414.65625 301.09375L414.65625 304.01562Q414.65625 304.89062 414.875 305.40625L414.875 305.5L413.73438 305.5ZM411.9375 304.67188Q412.45312 304.67188 412.90625 304.40625Q413.35938 304.14062 413.5625 303.71875L413.5625 302.42188L412.71875 302.42188Q410.71875 302.42188 410.71875 303.59375Q410.71875 304.09375 411.0625 304.39062Q411.40625 304.67188 411.9375 304.67188ZM419.89062 300.125Q419.64062 300.09375 419.35938 300.09375Q418.28125 300.09375 417.90625 301.0L417.90625 305.5L416.82812 305.5L416.82812 299.15625L417.875 299.15625L417.89062 299.89062Q418.42188 299.04688 419.40625 299.04688Q419.71875 299.04688 419.89062 299.125L419.89062 300.125ZM422.89062 303.90625L424.375 299.15625L425.53125 299.15625L422.98438 306.48438Q422.39062 308.0625 421.10938 308.0625L420.89062 308.04688L420.5 307.96875L420.5 307.09375L420.78125 307.10938Q421.34375 307.10938 421.64062 306.89062Q421.95312 306.67188 422.15625 306.07812L422.39062 305.42188L420.125 299.15625L421.3125 299.15625L422.89062 303.90625Z" fill-rule="nonzero"/><path stroke="#cccccc" stroke-width="1.0" stroke-linecap="butt" d="M300.0 192.0L300.0 297.0" fill-rule="nonzero"/><path fill="#000000" d="M247.60938 347.15625L247.60938 350.5L246.48438 350.5L246.48438 341.96875L249.64062 341.96875Q251.03125 341.96875 251.82812 342.6875Q252.625 343.39062 252.625 344.57812Q252.625 345.8125 251.84375 346.48438Q251.07812 347.15625 249.625 347.15625L247.60938 347.15625ZM247.60938 346.23438L249.64062 346.23438Q250.54688 346.23438 251.01562 345.8125Q251.5 345.39062 251.5 344.59375Q251.5 343.82812 251.01562 343.375Q250.54688 342.90625 249.70312 342.89062L247.60938 342.89062L247.60938 346.23438ZM257.39062 345.125Q257.14062 345.09375 256.85938 345.09375Q255.78125 345.09375 255.40625 346.0L255.40625 350.5L254.32812 350.5L254.32812 344.15625L255.375 344.15625L255.39062 344.89062Q255.92188 344.04688 256.90625 344.04688Q257.21875 344.04688 257.39062 344.125L257.39062 345.125ZM258.03125 347.26562Q258.03125 346.34375 258.39062 345.59375Q258.76562 344.84375 259.42188 344.45312Q260.07812 344.04688 260.90625 344.04688Q262.20312 344.04688 263.0 344.9375Q263.8125 345.82812 263.8125 347.32812L263.8125 347.40625Q263.8125 348.32812 263.45312 349.0625Q263.09375 349.79688 262.4375 350.21875Q261.78125 350.625 260.92188 350.625Q259.64062 350.625 258.82812 349.73438Q258.03125 348.82812 258.03125 347.34375L258.03125 347.26562ZM259.125 347.40625Q259.125 348.45312 259.60938 349.09375Q260.10938 349.73438 260.92188 349.73438Q261.75 349.73438 262.23438 349.09375Q262.71875 348.4375 262.71875 347.26562Q262.71875 346.23438 262.21875 345.59375Q261.73438 344.9375 260.90625 344.9375Q260.10938 344.9375 259.60938 345.57812Q259.125 346.20312 259.125 347.40625ZM266.34375 344.15625L266.375 344.85938Q267.0625 344.04688 268.25 344.04688Q269.57812 344.04688 270.0625 345.0625Q270.375 344.60938 270.875 344.32812Q271.39062 344.04688 272.07812 344.04688Q274.17188 344.04688 274.20312 346.25L274.20312 350.5L273.125 350.5L273.125 346.3125Q273.125 345.64062 272.8125 345.3125Q272.5 344.96875 271.76562 344.96875Q271.15625 344.96875 270.75 345.32812Q270.35938 345.6875 270.29688 346.29688L270.29688 350.5L269.21875 350.5L269.21875 346.34375Q269.21875 344.96875 267.85938 344.96875Q266.79688 344.96875 266.40625 345.875L266.40625 350.5L265.3125 350.5L265.3125 344.15625L266.34375 344.15625ZM276.03125 347.26562Q276.03125 346.34375 276.39062 345.59375Q276.76562 344.84375 277.42188 344.45312Q278.07812 344.04688 278.90625 344.04688Q280.20312 344.04688 281.0 344.9375Q281.8125 345.82812 281.8125 347.32812L281.8125 347.40625Q281.8125 348.32812 281.45312 349.0625Q281.09375 349.79688 280.4375 350.21875Q279.78125 350.625 278.92188 350.625Q277.64062 350.625 276.82812 349.73438Q276.03125 348.82812 276.03125 347.34375L276.03125 347.26562ZM277.125 347.40625Q277.125 348.45312 277.60938 349.09375Q278.10938 349.73438 278.92188 349.73438Q279.75 349.73438 280.23438 349.09375Q280.71875 348.4375 280.71875 347.26562Q280.71875 346.23438 280.21875 345.59375Q279.73438 344.9375 278.90625 344.9375Q278.10938 344.9375 277.60938 345.57812Q277.125 346.20312 277.125 347.40625ZM284.79688 342.625L284.79688 344.15625L285.96875 344.15625L285.96875 345.0L284.79688 345.0L284.79688 348.92188Q284.79688 349.3125 284.95312 349.5Q285.10938 349.6875 285.48438 349.6875Q285.67188 349.6875 286.0 349.625L286.0 350.5Q285.57812 350.625 285.17188 350.625Q284.45312 350.625 284.07812 350.1875Q283.70312 349.73438 283.70312 348.92188L283.70312 345.0L282.54688 345.0L282.54688 344.15625L283.70312 344.15625L283.70312 342.625L284.79688 342.625ZM288.5 350.5L287.42188 350.5L287.42188 344.15625L288.5 344.15625L288.5 350.5ZM287.32812 342.48438Q287.32812 342.21875 287.48438 342.03125Q287.65625 341.84375 287.96875 341.84375Q288.28125 341.84375 288.4375 342.03125Q288.60938 342.21875 288.60938 342.48438Q288.60938 342.73438 288.4375 342.92188Q288.28125 343.09375 287.96875 343.09375Q287.65625 343.09375 287.48438 342.92188Q287.32812 342.73438 287.32812 342.48438ZM290.03125 347.26562Q290.03125 346.34375 290.39062 345.59375Q290.76562 344.84375 291.42188 344.45312Q292.07812 344.04688 292.90625 344.04688Q294.20312 344.04688 295.0 344.9375Q295.8125 345.82812 295.8125 347.32812L295.8125 347.40625Q295.8125 348.32812 295.45312 349.0625Q295.09375 349.79688 294.4375 350.21875Q293.78125 350.625 292.92188 350.625Q291.64062 350.625 290.82812 349.73438Q290.03125 348.82812 290.03125 347.34375L290.03125 347.26562ZM291.125 347.40625Q291.125 348.45312 291.60938 349.09375Q292.10938 349.73438 292.92188 349.73438Q293.75 349.73438 294.23438 349.09375Q294.71875 348.4375 294.71875 347.26562Q294.71875 346.23438 294.21875 345.59375Q293.73438 344.9375 292.90625 344.9375Q292.10938 344.9375 291.60938 345.57812Q291.125 346.20312 291.125 347.40625ZM298.34375 344.15625L298.375 344.95312Q299.10938 344.04688 300.28125 344.04688Q302.29688 344.04688 302.3125 346.3125L302.3125 350.5L301.21875 350.5L301.21875 346.29688Q301.21875 345.625 300.90625 345.29688Q300.60938 344.96875 299.95312 344.96875Q299.42188 344.96875 299.01562 345.25Q298.625 345.53125 298.40625 345.98438L298.40625 350.5L297.32812 350.5L297.32812 344.15625L298.34375 344.15625ZM312.67188 347.40625Q312.67188 348.84375 312.01562 349.73438Q311.35938 350.625 310.21875 350.625Q309.0625 350.625 308.40625 349.89062L308.40625 352.9375L307.32812 352.9375L307.32812 344.15625L308.3125 344.15625L308.35938 344.85938Q309.03125 344.04688 310.20312 344.04688Q311.34375 344.04688 312.0 344.90625Q312.67188 345.76562 312.67188 347.29688L312.67188 347.40625ZM311.59375 347.28125Q311.59375 346.20312 311.125 345.59375Q310.67188 344.96875 309.875 344.96875Q308.89062 344.96875 308.40625 345.82812L308.40625 348.85938Q308.89062 349.73438 309.89062 349.73438Q310.67188 349.73438 311.125 349.125Q311.59375 348.5 311.59375 347.28125ZM314.03125 347.26562Q314.03125 346.34375 314.39062 345.59375Q314.76562 344.84375 315.42188 344.45312Q316.07812 344.04688 316.90625 344.04688Q318.20312 344.04688 319.0 344.9375Q319.8125 345.82812 319.8125 347.32812L319.8125 347.40625Q319.8125 348.32812 319.45312 349.0625Q319.09375 349.79688 318.4375 350.21875Q317.78125 350.625 316.92188 350.625Q315.64062 350.625 314.82812 349.73438Q314.03125 348.82812 314.03125 347.34375L314.03125 347.26562ZM315.125 347.40625Q315.125 348.45312 315.60938 349.09375Q316.10938 349.73438 316.92188 349.73438Q317.75 349.73438 318.23438 349.09375Q318.71875 348.4375 318.71875 347.26562Q318.71875 346.23438 318.21875 345.59375Q317.73438 344.9375 316.90625 344.9375Q316.10938 344.9375 315.60938 345.57812Q315.125 346.20312 315.125 347.40625ZM322.79688 342.625L322.79688 344.15625L323.96875 344.15625L323.96875 345.0L322.79688 345.0L322.79688 348.92188Q322.79688 349.3125 322.95312 349.5Q323.10938 349.6875 323.48438 349.6875Q323.67188 349.6875 324.0 349.625L324.0 350.5Q323.57812 350.625 323.17188 350.625Q322.45312 350.625 322.07812 350.1875Q321.70312 349.73438 321.70312 348.92188L321.70312 345.0L320.54688 345.0L320.54688 344.15625L321.70312 344.15625L321.70312 342.625L322.79688 342.625ZM327.95312 350.625Q326.65625 350.625 325.84375 349.78125Q325.04688 348.92188 325.04688 347.5L325.04688 347.3125Q325.04688 346.35938 325.40625 345.625Q325.76562 344.875 326.40625 344.46875Q327.0625 344.04688 327.8125 344.04688Q329.04688 344.04688 329.73438 344.85938Q330.42188 345.67188 330.42188 347.1875L330.42188 347.64062L326.125 347.64062Q326.15625 348.57812 326.67188 349.15625Q327.20312 349.73438 328.01562 349.73438Q328.57812 349.73438 328.96875 349.5Q329.375 349.26562 329.6875 348.875L330.34375 349.39062Q329.54688 350.625 327.95312 350.625ZM327.8125 344.9375Q327.15625 344.9375 326.70312 345.42188Q326.26562 345.89062 326.17188 346.75L329.34375 346.75L329.34375 346.67188Q329.29688 345.84375 328.89062 345.39062Q328.5 344.9375 327.8125 344.9375ZM332.34375 344.15625L332.375 344.95312Q333.10938 344.04688 334.28125 344.04688Q336.29688 344.04688 336.3125 346.3125L336.3125 350.5L335.21875 350.5L335.21875 346.29688Q335.21875 345.625 334.90625 345.29688Q334.60938 344.96875 333.95312 344.96875Q333.42188 344.96875 333.01562 345.25Q332.625 345.53125 332.40625 345.98438L332.40625 350.5L331.32812 350.5L331.32812 344.15625L332.34375 344.15625ZM339.79688 342.625L339.79688 344.15625L340.96875 344.15625L340.96875 345.0L339.79688 345.0L339.79688 348.92188Q339.79688 349.3125 339.95312 349.5Q340.10938 349.6875 340.48438 349.6875Q340.67188 349.6875 341.0 349.625L341.0 350.5Q340.57812 350.625 340.17188 350.625Q339.45312 350.625 339.07812 350.1875Q338.70312 349.73438 338.70312 348.92188L338.70312 345.0L337.54688 345.0L337.54688 344.15625L338.70312 344.15625L338.70312 342.625L339.79688 342.625ZM343.5 350.5L342.42188 350.5L342.42188 344.15625L343.5 344.15625L343.5 350.5ZM342.32812 342.48438Q342.32812 342.21875 342.48438 342.03125Q342.65625 341.84375 342.96875 341.84375Q343.28125 341.84375 343.4375 342.03125Q343.60938 342.21875 343.60938 342.48438Q343.60938 342.73438 343.4375 342.92188Q343.28125 343.09375 342.96875 343.09375Q342.65625 343.09375 342.48438 342.92188Q342.32812 342.73438 342.32812 342.48438ZM349.23438 350.5Q349.14062 350.3125 349.07812 349.82812Q348.32812 350.625 347.28125 350.625Q346.34375 350.625 345.73438 350.09375Q345.14062 349.5625 345.14062 348.73438Q345.14062 347.75 345.89062 347.20312Q346.64062 346.65625 348.01562 346.65625L349.0625 346.65625L349.0625 346.15625Q349.0625 345.59375 348.71875 345.26562Q348.39062 344.92188 347.71875 344.92188Q347.14062 344.92188 346.75 345.21875Q346.35938 345.5 346.35938 345.92188L345.26562 345.92188Q345.26562 345.4375 345.59375 345.0Q345.9375 344.5625 346.51562 344.3125Q347.09375 344.04688 347.78125 344.04688Q348.89062 344.04688 349.5 344.59375Q350.125 345.14062 350.15625 346.09375L350.15625 349.01562Q350.15625 349.89062 350.375 350.40625L350.375 350.5L349.23438 350.5ZM347.4375 349.67188Q347.95312 349.67188 348.40625 349.40625Q348.85938 349.14062 349.0625 348.71875L349.0625 347.42188L348.21875 347.42188Q346.21875 347.42188 346.21875 348.59375Q346.21875 349.09375 346.5625 349.39062Q346.90625 349.67188 347.4375 349.67188ZM353.5 350.5L352.42188 350.5L352.42188 341.5L353.5 341.5L353.5 350.5Z" fill-rule="nonzero"/><path stroke="#cccccc" stroke-width="1.0" stroke-linecap="butt" d="M300.0 192.0L226.0 266.0" fill-rule="nonzero"/><path fill="#000000" d="M160.89062 297.89062L158.14062 297.89062L158.14062 305.5L157.03125 305.5L157.03125 297.89062L154.28125 297.89062L154.28125 296.96875L160.89062 296.96875L160.89062 297.89062ZM164.89062 300.125Q164.64062 300.09375 164.35938 300.09375Q163.28125 300.09375 162.90625 301.0L162.90625 305.5L161.82812 305.5L161.82812 299.15625L162.875 299.15625L162.89062 299.89062Q163.42188 299.04688 164.40625 299.04688Q164.71875 299.04688 164.89062 299.125L164.89062 300.125ZM169.73438 305.5Q169.64062 305.3125 169.57812 304.82812Q168.82812 305.625 167.78125 305.625Q166.84375 305.625 166.23438 305.09375Q165.64062 304.5625 165.64062 303.73438Q165.64062 302.75 166.39062 302.20312Q167.14062 301.65625 168.51562 301.65625L169.5625 301.65625L169.5625 301.15625Q169.5625 300.59375 169.21875 300.26562Q168.89062 299.92188 168.21875 299.92188Q167.64062 299.92188 167.25 300.21875Q166.85938 300.5 166.85938 300.92188L165.76562 300.92188Q165.76562 300.4375 166.09375 300.0Q166.4375 299.5625 167.01562 299.3125Q167.59375 299.04688 168.28125 299.04688Q169.39062 299.04688 170.0 299.59375Q170.625 300.14062 170.65625 301.09375L170.65625 304.01562Q170.65625 304.89062 170.875 305.40625L170.875 305.5L169.73438 305.5ZM167.9375 304.67188Q168.45312 304.67188 168.90625 304.40625Q169.35938 304.14062 169.5625 303.71875L169.5625 302.42188L168.71875 302.42188Q166.71875 302.42188 166.71875 303.59375Q166.71875 304.09375 167.0625 304.39062Q167.40625 304.67188 167.9375 304.67188ZM173.84375 299.15625L173.875 299.95312Q174.60938 299.04688 175.78125 299.04688Q177.79688 299.04688 177.8125 301.3125L177.8125 305.5L176.71875 305.5L176.71875 301.29688Q176.71875 300.625 176.40625 300.29688Q176.10938 299.96875 175.45312 299.96875Q174.92188 299.96875 174.51562 300.25Q174.125 300.53125 173.90625 300.98438L173.90625 305.5L172.82812 305.5L172.82812 299.15625L173.84375 299.15625ZM183.51562 303.8125Q183.51562 303.375 183.17188 303.14062Q182.84375 302.89062 182.01562 302.71875Q181.20312 302.54688 180.71875 302.29688Q180.23438 302.04688 180.0 301.71875Q179.78125 301.375 179.78125 300.90625Q179.78125 300.125 180.4375 299.59375Q181.09375 299.04688 182.125 299.04688Q183.20312 299.04688 183.85938 299.60938Q184.53125 300.15625 184.53125 301.01562L183.45312 301.01562Q183.45312 300.57812 183.0625 300.26562Q182.6875 299.9375 182.125 299.9375Q181.53125 299.9375 181.1875 300.20312Q180.85938 300.45312 180.85938 300.85938Q180.85938 301.25 181.17188 301.45312Q181.48438 301.65625 182.29688 301.84375Q183.10938 302.01562 183.60938 302.26562Q184.10938 302.51562 184.34375 302.875Q184.59375 303.23438 184.59375 303.73438Q184.59375 304.59375 183.90625 305.10938Q183.23438 305.625 182.15625 305.625Q181.39062 305.625 180.79688 305.35938Q180.21875 305.07812 179.89062 304.59375Q179.5625 304.10938 179.5625 303.54688L180.64062 303.54688Q180.67188 304.09375 181.07812 304.42188Q181.48438 304.73438 182.15625 304.73438Q182.76562 304.73438 183.14062 304.48438Q183.51562 304.23438 183.51562 303.8125ZM191.17188 302.40625Q191.17188 303.84375 190.51562 304.73438Q189.85938 305.625 188.71875 305.625Q187.5625 305.625 186.90625 304.89062L186.90625 307.9375L185.82812 307.9375L185.82812 299.15625L186.8125 299.15625L186.85938 299.85938Q187.53125 299.04688 188.70312 299.04688Q189.84375 299.04688 190.5 299.90625Q191.17188 300.76562 191.17188 302.29688L191.17188 302.40625ZM190.09375 302.28125Q190.09375 301.20312 189.625 300.59375Q189.17188 299.96875 188.375 299.96875Q187.39062 299.96875 186.90625 300.82812L186.90625 303.85938Q187.39062 304.73438 188.39062 304.73438Q189.17188 304.73438 189.625 304.125Q190.09375 303.5 190.09375 302.28125ZM196.73438 305.5Q196.64062 305.3125 196.57812 304.82812Q195.82812 305.625 194.78125 305.625Q193.84375 305.625 193.23438 305.09375Q192.64062 304.5625 192.64062 303.73438Q192.64062 302.75 193.39062 302.20312Q194.14062 301.65625 195.51562 301.65625L196.5625 301.65625L196.5625 301.15625Q196.5625 300.59375 196.21875 300.26562Q195.89062 299.92188 195.21875 299.92188Q194.64062 299.92188 194.25 300.21875Q193.85938 300.5 193.85938 300.92188L192.76562 300.92188Q192.76562 300.4375 193.09375 300.0Q193.4375 299.5625 194.01562 299.3125Q194.59375 299.04688 195.28125 299.04688Q196.39062 299.04688 197.0 299.59375Q197.625 300.14062 197.65625 301.09375L197.65625 304.01562Q197.65625 304.89062 197.875 305.40625L197.875 305.5L196.73438 305.5ZM194.9375 304.67188Q195.45312 304.67188 195.90625 304.40625Q196.35938 304.14062 196.5625 303.71875L196.5625 302.42188L195.71875 302.42188Q193.71875 302.42188 193.71875 303.59375Q193.71875 304.09375 194.0625 304.39062Q194.40625 304.67188 194.9375 304.67188ZM202.89062 300.125Q202.64062 300.09375 202.35938 300.09375Q201.28125 300.09375 200.90625 301.0L200.90625 305.5L199.82812 305.5L199.82812 299.15625L200.875 299.15625L200.89062 299.89062Q201.42188 299.04688 202.40625 299.04688Q202.71875 299.04688 202.89062 299.125L202.89062 300.125ZM206.45312 305.625Q205.15625 305.625 204.34375 304.78125Q203.54688 303.92188 203.54688 302.5L203.54688 302.3125Q203.54688 301.35938 203.90625 300.625Q204.26562 299.875 204.90625 299.46875Q205.5625 299.04688 206.3125 299.04688Q207.54688 299.04688 208.23438 299.85938Q208.92188 300.67188 208.92188 302.1875L208.92188 302.64062L204.625 302.64062Q204.65625 303.57812 205.17188 304.15625Q205.70312 304.73438 206.51562 304.73438Q207.07812 304.73438 207.46875 304.5Q207.875 304.26562 208.1875 303.875L208.84375 304.39062Q208.04688 305.625 206.45312 305.625ZM206.3125 299.9375Q205.65625 299.9375 205.20312 300.42188Q204.76562 300.89062 204.67188 301.75L207.84375 301.75L207.84375 301.67188Q207.79688 300.84375 207.39062 300.39062Q207.0 299.9375 206.3125 299.9375ZM210.84375 299.15625L210.875 299.95312Q211.60938 299.04688 212.78125 299.04688Q214.79688 299.04688 214.8125 301.3125L214.8125 305.5L213.71875 305.5L213.71875 301.29688Q213.71875 300.625 213.40625 300.29688Q213.10938 299.96875 212.45312 299.96875Q211.92188 299.96875 211.51562 300.25Q211.125 300.53125 210.90625 300.98438L210.90625 305.5L209.82812 305.5L209.82812 299.15625L210.84375 299.15625ZM219.35938 304.73438Q219.9375 304.73438 220.375 304.39062Q220.8125 304.03125 220.85938 303.5L221.89062 303.5Q221.85938 304.04688 221.5 304.54688Q221.15625 305.03125 220.57812 305.32812Q220.01562 305.625 219.35938 305.625Q218.0625 305.625 217.29688 304.76562Q216.54688 303.89062 216.54688 302.39062L216.54688 302.20312Q216.54688 301.28125 216.875 300.5625Q217.21875 299.84375 217.84375 299.45312Q218.48438 299.04688 219.35938 299.04688Q220.42188 299.04688 221.125 299.6875Q221.84375 300.3125 221.89062 301.34375L220.85938 301.34375Q220.8125 300.71875 220.39062 300.32812Q219.96875 299.9375 219.35938 299.9375Q218.53125 299.9375 218.07812 300.53125Q217.625 301.125 217.625 302.25L217.625 302.45312Q217.625 303.54688 218.07812 304.14062Q218.53125 304.73438 219.35938 304.73438ZM224.89062 303.90625L226.375 299.15625L227.53125 299.15625L224.98438 306.48438Q224.39062 308.0625 223.10938 308.0625L222.89062 308.04688L222.5 307.96875L222.5 307.09375L222.78125 307.10938Q223.34375 307.10938 223.64062 306.89062Q223.95312 306.67188 224.15625 306.07812L224.39062 305.42188L222.125 299.15625L223.3125 299.15625L224.89062 303.90625Z" fill-rule="nonzero"/><path stroke="#cccccc" stroke-width="1.0" stroke-linecap="butt" d="M300.0 192.0L195.0 192.0" fill-rule="nonzero"/><path fill="#000000" d="M114.703125 192.73438L111.109375 192.73438L111.109375 196.5L109.984375 196.5L109.984375 187.96875L115.28125 187.96875L115.28125 188.89062L111.109375 188.89062L111.109375 191.8125L114.703125 191.8125L114.703125 192.73438ZM119.890625 191.125Q119.640625 191.09375 119.359375 191.09375Q118.28125 191.09375 117.90625 192.0L117.90625 196.5L116.828125 196.5L116.828125 190.15625L117.875 190.15625L117.890625 190.89062Q118.421875 190.04688 119.40625 190.04688Q119.71875 190.04688 119.890625 190.125L119.890625 191.125ZM122.0 196.5L120.921875 196.5L120.921875 190.15625L122.0 190.15625L122.0 196.5ZM120.828125 188.48438Q120.828125 188.21875 120.984375 188.03125Q121.15625 187.84375 121.46875 187.84375Q121.78125 187.84375 121.9375 188.03125Q122.109375 188.21875 122.109375 188.48438Q122.109375 188.73438 121.9375 188.92188Q121.78125 189.09375 121.46875 189.09375Q121.15625 189.09375 120.984375 188.92188Q120.828125 188.73438 120.828125 188.48438ZM126.453125 196.625Q125.15625 196.625 124.34375 195.78125Q123.546875 194.92188 123.546875 193.5L123.546875 193.3125Q123.546875 192.35938 123.90625 191.625Q124.265625 190.875 124.90625 190.46875Q125.5625 190.04688 126.3125 190.04688Q127.546875 190.04688 128.23438 190.85938Q128.92188 191.67188 128.92188 193.1875L128.92188 193.64062L124.625 193.64062Q124.65625 194.57812 125.171875 195.15625Q125.703125 195.73438 126.515625 195.73438Q127.078125 195.73438 127.46875 195.5Q127.875 195.26562 128.1875 194.875L128.84375 195.39062Q128.04688 196.625 126.453125 196.625ZM126.3125 190.9375Q125.65625 190.9375 125.203125 191.42188Q124.765625 191.89062 124.671875 192.75L127.84375 192.75L127.84375 192.67188Q127.796875 191.84375 127.390625 191.39062Q127.0 190.9375 126.3125 190.9375ZM130.84375 190.15625L130.875 190.95312Q131.60938 190.04688 132.78125 190.04688Q134.79688 190.04688 134.8125 192.3125L134.8125 196.5L133.71875 196.5L133.71875 192.29688Q133.71875 191.625 133.40625 191.29688Q133.10938 190.96875 132.45312 190.96875Q131.92188 190.96875 131.51562 191.25Q131.125 191.53125 130.90625 191.98438L130.90625 196.5L129.82812 196.5L129.82812 190.15625L130.84375 190.15625ZM136.5625 193.28125Q136.5625 191.8125 137.25 190.9375Q137.9375 190.04688 139.0625 190.04688Q140.17188 190.04688 140.82812 190.79688L140.82812 187.5L141.90625 187.5L141.90625 196.5L140.90625 196.5L140.85938 195.8125Q140.20312 196.625 139.04688 196.625Q137.95312 196.625 137.25 195.71875Q136.5625 194.8125 136.5625 193.35938L136.5625 193.28125ZM137.64062 193.40625Q137.64062 194.48438 138.07812 195.09375Q138.53125 195.70312 139.3125 195.70312Q140.34375 195.70312 140.82812 194.76562L140.82812 191.85938Q140.34375 190.96875 139.32812 190.96875Q138.53125 190.96875 138.07812 191.57812Q137.64062 192.1875 137.64062 193.40625ZM145.0 196.5L143.92188 196.5L143.92188 187.5L145.0 187.5L145.0 196.5ZM148.89062 194.90625L150.375 190.15625L151.53125 190.15625L148.98438 197.48438Q148.39062 199.0625 147.10938 199.0625L146.89062 199.04688L146.5 198.96875L146.5 198.09375L146.78125 198.10938Q147.34375 198.10938 147.64062 197.89062Q147.95312 197.67188 148.15625 197.07812L148.39062 196.42188L146.125 190.15625L147.3125 190.15625L148.89062 194.90625ZM157.29688 188.625L157.29688 190.15625L158.46875 190.15625L158.46875 191.0L157.29688 191.0L157.29688 194.92188Q157.29688 195.3125 157.45312 195.5Q157.60938 195.6875 157.98438 195.6875Q158.17188 195.6875 158.5 195.625L158.5 196.5Q158.07812 196.625 157.67188 196.625Q156.95312 196.625 156.57812 196.1875Q156.20312 195.73438 156.20312 194.92188L156.20312 191.0L155.04688 191.0L155.04688 190.15625L156.20312 190.15625L156.20312 188.625L157.29688 188.625ZM162.45312 196.625Q161.15625 196.625 160.34375 195.78125Q159.54688 194.92188 159.54688 193.5L159.54688 193.3125Q159.54688 192.35938 159.90625 191.625Q160.26562 190.875 160.90625 190.46875Q161.5625 190.04688 162.3125 190.04688Q163.54688 190.04688 164.23438 190.85938Q164.92188 191.67188 164.92188 193.1875L164.92188 193.64062L160.625 193.64062Q160.65625 194.57812 161.17188 195.15625Q161.70312 195.73438 162.51562 195.73438Q163.07812 195.73438 163.46875 195.5Q163.875 195.26562 164.1875 194.875L164.84375 195.39062Q164.04688 196.625 162.45312 196.625ZM162.3125 190.9375Q161.65625 190.9375 161.20312 191.42188Q160.76562 191.89062 160.67188 192.75L163.84375 192.75L163.84375 192.67188Q163.79688 191.84375 163.39062 191.39062Q163.0 190.9375 162.3125 190.9375ZM169.73438 196.5Q169.64062 196.3125 169.57812 195.82812Q168.82812 196.625 167.78125 196.625Q166.84375 196.625 166.23438 196.09375Q165.64062 195.5625 165.64062 194.73438Q165.64062 193.75 166.39062 193.20312Q167.14062 192.65625 168.51562 192.65625L169.5625 192.65625L169.5625 192.15625Q169.5625 191.59375 169.21875 191.26562Q168.89062 190.92188 168.21875 190.92188Q167.64062 190.92188 167.25 191.21875Q166.85938 191.5 166.85938 191.92188L165.76562 191.92188Q165.76562 191.4375 166.09375 191.0Q166.4375 190.5625 167.01562 190.3125Q167.59375 190.04688 168.28125 190.04688Q169.39062 190.04688 170.0 190.59375Q170.625 191.14062 170.65625 192.09375L170.65625 195.01562Q170.65625 195.89062 170.875 196.40625L170.875 196.5L169.73438 196.5ZM167.9375 195.67188Q168.45312 195.67188 168.90625 195.40625Q169.35938 195.14062 169.5625 194.71875L169.5625 193.42188L168.71875 193.42188Q166.71875 193.42188 166.71875 194.59375Q166.71875 195.09375 167.0625 195.39062Q167.40625 195.67188 167.9375 195.67188ZM173.84375 190.15625L173.875 190.85938Q174.5625 190.04688 175.75 190.04688Q177.07812 190.04688 177.5625 191.0625Q177.875 190.60938 178.375 190.32812Q178.89062 190.04688 179.57812 190.04688Q181.67188 190.04688 181.70312 192.25L181.70312 196.5L180.625 196.5L180.625 192.3125Q180.625 191.64062 180.3125 191.3125Q180.0 190.96875 179.26562 190.96875Q178.65625 190.96875 178.25 191.32812Q177.85938 191.6875 177.79688 192.29688L177.79688 196.5L176.71875 196.5L176.71875 192.34375Q176.71875 190.96875 175.35938 190.96875Q174.29688 190.96875 173.90625 191.875L173.90625 196.5L172.8125 196.5L172.8125 190.15625L173.84375 190.15625Z" fill-rule="nonzero"/><path stroke="#cccccc" stroke-width="1.0" stroke-linecap="butt" d="M300.0 192.0L226.0 118.0" fill-rule="nonzero"/><path fill="#000000" d="M149.3125 83.5625L145.60938 83.5625L145.60938 86.578125L149.90625 86.578125L149.90625 87.5L144.48438 87.5L144.48438 78.96875L149.85938 78.96875L149.85938 79.890625L145.60938 79.890625L145.60938 82.640625L149.3125 82.640625L149.3125 83.5625ZM152.79688 79.625L152.79688 81.15625L153.96875 81.15625L153.96875 82.0L152.79688 82.0L152.79688 85.921875Q152.79688 86.3125 152.95312 86.5Q153.10938 86.6875 153.48438 86.6875Q153.67188 86.6875 154.0 86.625L154.0 87.5Q153.57812 87.625 153.17188 87.625Q152.45312 87.625 152.07812 87.1875Q151.70312 86.734375 151.70312 85.921875L151.70312 82.0L150.54688 82.0L150.54688 81.15625L151.70312 81.15625L151.70312 79.625L152.79688 79.625ZM156.40625 81.921875Q157.125 81.046875 158.28125 81.046875Q160.29688 81.046875 160.3125 83.3125L160.3125 87.5L159.21875 87.5L159.21875 83.296875Q159.21875 82.625 158.90625 82.296875Q158.60938 81.96875 157.95312 81.96875Q157.42188 81.96875 157.01562 82.25Q156.625 82.53125 156.40625 82.984375L156.40625 87.5L155.32812 87.5L155.32812 78.5L156.40625 78.5L156.40625 81.921875ZM163.5 87.5L162.42188 87.5L162.42188 81.15625L163.5 81.15625L163.5 87.5ZM162.32812 79.484375Q162.32812 79.21875 162.48438 79.03125Q162.65625 78.84375 162.96875 78.84375Q163.28125 78.84375 163.4375 79.03125Q163.60938 79.21875 163.60938 79.484375Q163.60938 79.734375 163.4375 79.921875Q163.28125 80.09375 162.96875 80.09375Q162.65625 80.09375 162.48438 79.921875Q162.32812 79.734375 162.32812 79.484375ZM167.85938 86.734375Q168.4375 86.734375 168.875 86.390625Q169.3125 86.03125 169.35938 85.5L170.39062 85.5Q170.35938 86.046875 170.0 86.546875Q169.65625 87.03125 169.07812 87.328125Q168.51562 87.625 167.85938 87.625Q166.5625 87.625 165.79688 86.765625Q165.04688 85.890625 165.04688 84.390625L165.04688 84.203125Q165.04688 83.28125 165.375 82.5625Q165.71875 81.84375 166.34375 81.453125Q166.98438 81.046875 167.85938 81.046875Q168.92188 81.046875 169.625 81.6875Q170.34375 82.3125 170.39062 83.34375L169.35938 83.34375Q169.3125 82.71875 168.89062 82.328125Q168.46875 81.9375 167.85938 81.9375Q167.03125 81.9375 166.57812 82.53125Q166.125 83.125 166.125 84.25L166.125 84.453125Q166.125 85.546875 166.57812 86.140625Q167.03125 86.734375 167.85938 86.734375ZM175.23438 87.5Q175.14062 87.3125 175.07812 86.828125Q174.32812 87.625 173.28125 87.625Q172.34375 87.625 171.73438 87.09375Q171.14062 86.5625 171.14062 85.734375Q171.14062 84.75 171.89062 84.203125Q172.64062 83.65625 174.01562 83.65625L175.0625 83.65625L175.0625 83.15625Q175.0625 82.59375 174.71875 82.265625Q174.39062 81.921875 173.71875 81.921875Q173.14062 81.921875 172.75 82.21875Q172.35938 82.5 172.35938 82.921875L171.26562 82.921875Q171.26562 82.4375 171.59375 82.0Q171.9375 81.5625 172.51562 81.3125Q173.09375 81.046875 173.78125 81.046875Q174.89062 81.046875 175.5 81.59375Q176.125 82.140625 176.15625 83.09375L176.15625 86.015625Q176.15625 86.890625 176.375 87.40625L176.375 87.5L175.23438 87.5ZM173.4375 86.671875Q173.95312 86.671875 174.40625 86.40625Q174.85938 86.140625 175.0625 85.71875L175.0625 84.421875L174.21875 84.421875Q172.21875 84.421875 172.21875 85.59375Q172.21875 86.09375 172.5625 86.390625Q172.90625 86.671875 173.4375 86.671875ZM179.5 87.5L178.42188 87.5L178.42188 78.5L179.5 78.5L179.5 87.5ZM188.01562 85.8125Q188.01562 85.375 187.67188 85.140625Q187.34375 84.890625 186.51562 84.71875Q185.70312 84.546875 185.21875 84.296875Q184.73438 84.046875 184.5 83.71875Q184.28125 83.375 184.28125 82.90625Q184.28125 82.125 184.9375 81.59375Q185.59375 81.046875 186.625 81.046875Q187.70312 81.046875 188.35938 81.609375Q189.03125 82.15625 189.03125 83.015625L187.95312 83.015625Q187.95312 82.578125 187.5625 82.265625Q187.1875 81.9375 186.625 81.9375Q186.03125 81.9375 185.6875 82.203125Q185.35938 82.453125 185.35938 82.859375Q185.35938 83.25 185.67188 83.453125Q185.98438 83.65625 186.79688 83.84375Q187.60938 84.015625 188.10938 84.265625Q188.60938 84.515625 188.84375 84.875Q189.09375 85.234375 189.09375 85.734375Q189.09375 86.59375 188.40625 87.109375Q187.73438 87.625 186.65625 87.625Q185.89062 87.625 185.29688 87.359375Q184.71875 87.078125 184.39062 86.59375Q184.0625 86.109375 184.0625 85.546875L185.14062 85.546875Q185.17188 86.09375 185.57812 86.421875Q185.98438 86.734375 186.65625 86.734375Q187.26562 86.734375 187.64062 86.484375Q188.01562 86.234375 188.01562 85.8125ZM191.79688 79.625L191.79688 81.15625L192.96875 81.15625L192.96875 82.0L191.79688 82.0L191.79688 85.921875Q191.79688 86.3125 191.95312 86.5Q192.10938 86.6875 192.48438 86.6875Q192.67188 86.6875 193.0 86.625L193.0 87.5Q192.57812 87.625 192.17188 87.625Q191.45312 87.625 191.07812 87.1875Q190.70312 86.734375 190.70312 85.921875L190.70312 82.0L189.54688 82.0L189.54688 81.15625L190.70312 81.15625L190.70312 79.625L191.79688 79.625ZM198.23438 87.5Q198.14062 87.3125 198.07812 86.828125Q197.32812 87.625 196.28125 87.625Q195.34375 87.625 194.73438 87.09375Q194.14062 86.5625 194.14062 85.734375Q194.14062 84.75 194.89062 84.203125Q195.64062 83.65625 197.01562 83.65625L198.0625 83.65625L198.0625 83.15625Q198.0625 82.59375 197.71875 82.265625Q197.39062 81.921875 196.71875 81.921875Q196.14062 81.921875 195.75 82.21875Q195.35938 82.5 195.35938 82.921875L194.26562 82.921875Q194.26562 82.4375 194.59375 82.0Q194.9375 81.5625 195.51562 81.3125Q196.09375 81.046875 196.78125 81.046875Q197.89062 81.046875 198.5 81.59375Q199.125 82.140625 199.15625 83.09375L199.15625 86.015625Q199.15625 86.890625 199.375 87.40625L199.375 87.5L198.23438 87.5ZM196.4375 86.671875Q196.95312 86.671875 197.40625 86.40625Q197.85938 86.140625 198.0625 85.71875L198.0625 84.421875L197.21875 84.421875Q195.21875 84.421875 195.21875 85.59375Q195.21875 86.09375 195.5625 86.390625Q195.90625 86.671875 196.4375 86.671875ZM202.34375 81.15625L202.375 81.953125Q203.10938 81.046875 204.28125 81.046875Q206.29688 81.046875 206.3125 83.3125L206.3125 87.5L205.21875 87.5L205.21875 83.296875Q205.21875 82.625 204.90625 82.296875Q204.60938 81.96875 203.95312 81.96875Q203.42188 81.96875 203.01562 82.25Q202.625 82.53125 202.40625 82.984375L202.40625 87.5L201.32812 87.5L201.32812 81.15625L202.34375 81.15625ZM208.0625 84.28125Q208.0625 82.8125 208.75 81.9375Q209.4375 81.046875 210.5625 81.046875Q211.67188 81.046875 212.32812 81.796875L212.32812 78.5L213.40625 78.5L213.40625 87.5L212.40625 87.5L212.35938 86.8125Q211.70312 87.625 210.54688 87.625Q209.45312 87.625 208.75 86.71875Q208.0625 85.8125 208.0625 84.359375L208.0625 84.28125ZM209.14062 84.40625Q209.14062 85.484375 209.57812 86.09375Q210.03125 86.703125 210.8125 86.703125Q211.84375 86.703125 212.32812 85.765625L212.32812 82.859375Q211.84375 81.96875 210.82812 81.96875Q210.03125 81.96875 209.57812 82.578125Q209.14062 83.1875 209.14062 84.40625ZM219.23438 87.5Q219.14062 87.3125 219.07812 86.828125Q218.32812 87.625 217.28125 87.625Q216.34375 87.625 215.73438 87.09375Q215.14062 86.5625 215.14062 85.734375Q215.14062 84.75 215.89062 84.203125Q216.64062 83.65625 218.01562 83.65625L219.0625 83.65625L219.0625 83.15625Q219.0625 82.59375 218.71875 82.265625Q218.39062 81.921875 217.71875 81.921875Q217.14062 81.921875 216.75 82.21875Q216.35938 82.5 216.35938 82.921875L215.26562 82.921875Q215.26562 82.4375 215.59375 82.0Q215.9375 81.5625 216.51562 81.3125Q217.09375 81.046875 217.78125 81.046875Q218.89062 81.046875 219.5 81.59375Q220.125 82.140625 220.15625 83.09375L220.15625 86.015625Q220.15625 86.890625 220.375 87.40625L220.375 87.5L219.23438 87.5ZM217.4375 86.671875Q217.95312 86.671875 218.40625 86.40625Q218.85938 86.140625 219.0625 85.71875L219.0625 84.421875L218.21875 84.421875Q216.21875 84.421875 216.21875 85.59375Q216.21875 86.09375 216.5625 86.390625Q216.90625 86.671875 217.4375 86.671875ZM225.39062 82.125Q225.14062 82.09375 224.85938 82.09375Q223.78125 82.09375 223.40625 83.0L223.40625 87.5L222.32812 87.5L222.32812 81.15625L223.375 81.15625L223.39062 81.890625Q223.92188 81.046875 224.90625 81.046875Q225.21875 81.046875 225.39062 81.125L225.39062 82.125ZM226.0625 84.28125Q226.0625 82.8125 226.75 81.9375Q227.4375 81.046875 228.5625 81.046875Q229.67188 81.046875 230.32812 81.796875L230.32812 78.5L231.40625 78.5L231.40625 87.5L230.40625 87.5L230.35938 86.8125Q229.70312 87.625 228.54688 87.625Q227.45312 87.625 226.75 86.71875Q226.0625 85.8125 226.0625 84.359375L226.0625 84.28125ZM227.14062 84.40625Q227.14062 85.484375 227.57812 86.09375Q228.03125 86.703125 228.8125 86.703125Q229.84375 86.703125 230.32812 85.765625L230.32812 82.859375Q229.84375 81.96875 228.82812 81.96875Q228.03125 81.96875 227.57812 82.578125Q227.14062 83.1875 227.14062 84.40625ZM237.01562 85.8125Q237.01562 85.375 236.67188 85.140625Q236.34375 84.890625 235.51562 84.71875Q234.70312 84.546875 234.21875 84.296875Q233.73438 84.046875 233.5 83.71875Q233.28125 83.375 233.28125 82.90625Q233.28125 82.125 233.9375 81.59375Q234.59375 81.046875 235.625 81.046875Q236.70312 81.046875 237.35938 81.609375Q238.03125 82.15625 238.03125 83.015625L236.95312 83.015625Q236.95312 82.578125 236.5625 82.265625Q236.1875 81.9375 235.625 81.9375Q235.03125 81.9375 234.6875 82.203125Q234.35938 82.453125 234.35938 82.859375Q234.35938 83.25 234.67188 83.453125Q234.98438 83.65625 235.79688 83.84375Q236.60938 84.015625 237.10938 84.265625Q237.60938 84.515625 237.84375 84.875Q238.09375 85.234375 238.09375 85.734375Q238.09375 86.59375 237.40625 87.109375Q236.73438 87.625 235.65625 87.625Q234.89062 87.625 234.29688 87.359375Q233.71875 87.078125 233.39062 86.59375Q233.0625 86.109375 233.0625 85.546875L234.14062 85.546875Q234.17188 86.09375 234.57812 86.421875Q234.98438 86.734375 235.65625 86.734375Q236.26562 86.734375 236.64062 86.484375Q237.01562 86.234375 237.01562 85.8125Z" fill-rule="nonzero"/><path stroke="#cccccc" stroke-width="1.0" stroke-linecap="butt" d="M300.0 192.0L300.0 87.0" fill-rule="nonzero"/><path stroke="#4285f4" stroke-width="1.0" stroke-linecap="butt" d="M300.0 76.0C327.0 91.0 346.0 111.0 358.0 134.0C377.0 147.0 394.0 167.0 405.0 192.0C405.0 220.0 397.0 248.0 382.0 274.0C354.0 286.0 326.0 289.0 300.0 285.0C275.0 286.0 250.0 279.0 226.0 266.0C209.0 244.0 199.0 219.0 195.0 192.0C206.0 167.0 223.0 147.0 242.0 134.0C254.0 111.0 273.0 91.0 300.0 76.0Z" fill-rule="nonzero"/><path fill="#4285f4" d="M300.0 71.5L304.5 76.0L300.0 80.5L295.5 76.0Z" fill-rule="nonzero"/><path fill="#4285f4" d="M358.0 129.5L362.5 134.0L358.0 138.5L353.5 134.0Z" fill-rule="nonzero"/><path fill="#4285f4" d="M405.0 187.5L409.5 192.0L405.0 196.5L400.5 192.0Z" fill-rule="nonzero"/><path fill="#4285f4" d="M382.0 269.5L386.5 274.0L382.0 278.5L377.5 274.0Z" fill-rule="nonzero"/><path fill="#4285f4" d="M300.0 280.5L304.5 285.0L300.0 289.5L295.5 285.0Z" fill-rule="nonzero"/><path fill="#4285f4" d="M226.0 261.5L230.5 266.0L226.0 270.5L221.5 266.0Z" fill-rule="nonzero"/><path fill="#4285f4" d="M195.0 187.5L199.5 192.0L195.0 196.5L190.5 192.0Z" fill-rule="nonzero"/><path fill="#4285f4" d="M242.0 129.5L246.5 134.0L242.0 138.5L237.5 134.0Z" fill-rule="nonzero"/><path fill="#4285f4" d="M300.0 340.45L306.0 346.45L300.0 352.45L294.0 346.45Z" fill-rule="nonzero"/><path fill="#757575" d="M20.096874 37.55L20.096874 23.2375L25.01875 23.2375Q26.690624 23.2375 27.58125 23.440624Q28.8 23.721874 29.675 24.45625Q30.8 25.425 31.3625 26.909374Q31.925 28.39375 31.925 30.315624Q31.925 31.940624 31.55 33.20625Q31.175 34.45625 30.565624 35.284374Q29.971874 36.1125 29.26875 36.596874Q28.565624 37.065624 27.565624 37.315624Q26.565624 37.55 25.253124 37.55L20.096874 37.55ZM21.9875 35.8625L25.05 35.8625Q26.45625 35.8625 27.253124 35.596874Q28.065624 35.33125 28.55 34.846874Q29.221874 34.175 29.596874 33.05Q29.971874 31.909374 29.971874 30.284374Q29.971874 28.034374 29.2375 26.83125Q28.503124 25.628124 27.440624 25.221874Q26.690624 24.925 25.003124 24.925L21.9875 24.925L21.9875 35.8625ZM40.971874 34.20625L42.784374 34.440624Q42.3625 36.01875 41.190624 36.909374Q40.034374 37.784374 38.221874 37.784374Q35.95625 37.784374 34.6125 36.39375Q33.284374 34.9875 33.284374 32.45625Q33.284374 29.83125 34.628124 28.39375Q35.971874 26.940624 38.128124 26.940624Q40.20625 26.940624 41.51875 28.3625Q42.846874 29.76875 42.846874 32.346874Q42.846874 32.503124 42.83125 32.815624L35.096874 32.815624Q35.190624 34.51875 36.065624 35.425Q36.940624 36.33125 38.2375 36.33125Q39.20625 36.33125 39.878124 35.83125Q40.565624 35.315624 40.971874 34.20625ZM35.190624 31.3625L40.9875 31.3625Q40.878124 30.065624 40.33125 29.409374Q39.4875 28.39375 38.14375 28.39375Q36.940624 28.39375 36.1125 29.20625Q35.284374 30.003124 35.190624 31.3625ZM44.159374 34.45625L45.909374 34.175Q46.05 35.221874 46.721874 35.784374Q47.39375 36.33125 48.596874 36.33125Q49.8 36.33125 50.378124 35.846874Q50.971874 35.346874 50.971874 34.690624Q50.971874 34.096874 50.45625 33.753124Q50.096874 33.51875 48.659374 33.159374Q46.721874 32.659374 45.971874 32.315624Q45.2375 31.95625 44.846874 31.33125Q44.45625 30.690624 44.45625 29.925Q44.45625 29.2375 44.76875 28.64375Q45.096874 28.05 45.64375 27.659374Q46.05 27.3625 46.753124 27.159374Q47.471874 26.940624 48.284374 26.940624Q49.503124 26.940624 50.425 27.3Q51.346874 27.64375 51.784374 28.253124Q52.221874 28.846874 52.39375 29.846874L50.675 30.08125Q50.55 29.284374 49.9875 28.846874Q49.425 28.39375 48.409374 28.39375Q47.190624 28.39375 46.675 28.8Q46.159374 29.190624 46.159374 29.721874Q46.159374 30.065624 46.378124 30.346874Q46.58125 30.628124 47.05 30.815624Q47.315624 30.909374 48.596874 31.253124Q50.471874 31.753124 51.20625 32.08125Q51.940624 32.39375 52.3625 33.003124Q52.784374 33.596874 52.784374 34.503124Q52.784374 35.378124 52.26875 36.159374Q51.753124 36.940624 50.784374 37.3625Q49.815624 37.784374 48.596874 37.784374Q46.58125 37.784374 45.51875 36.940624Q44.45625 36.096874 44.159374 34.45625ZM54.878124 25.253124L54.878124 23.2375L56.64375 23.2375L56.64375 25.253124L54.878124 25.253124ZM54.878124 37.55L54.878124 27.175L56.64375 27.175L56.64375 37.55L54.878124 37.55ZM58.846874 37.55L58.846874 27.175L60.425 27.175L60.425 28.753124Q61.034374 27.64375 61.55 27.3Q62.065624 26.940624 62.675 26.940624Q63.565624 26.940624 64.4875 27.503124L63.878124 29.14375Q63.2375 28.753124 62.596874 28.753124Q62.01875 28.753124 61.55 29.1125Q61.096874 29.45625 60.89375 30.065624Q60.6125 31.003124 60.6125 32.1125L60.6125 37.55L58.846874 37.55ZM72.97188 34.20625L74.78438 34.440624Q74.3625 36.01875 73.19063 36.909374Q72.03438 37.784374 70.22188 37.784374Q67.95625 37.784374 66.6125 36.39375Q65.28438 34.9875 65.28438 32.45625Q65.28438 29.83125 66.62813 28.39375Q67.97188 26.940624 70.12813 26.940624Q72.20625 26.940624 73.51875 28.3625Q74.84688 29.76875 74.84688 32.346874Q74.84688 32.503124 74.83125 32.815624L67.09688 32.815624Q67.19063 34.51875 68.06563 35.425Q68.94063 36.33125 70.2375 36.33125Q71.20625 36.33125 71.87813 35.83125Q72.56563 35.315624 72.97188 34.20625ZM67.19063 31.3625L72.9875 31.3625Q72.87813 30.065624 72.33125 29.409374Q71.4875 28.39375 70.14375 28.39375Q68.94063 28.39375 68.1125 29.20625Q67.28438 30.003124 67.19063 31.3625ZM83.59688 37.55L83.59688 36.2375Q82.6125 37.784374 80.69063 37.784374Q79.45625 37.784374 78.40938 37.096874Q77.37813 36.409374 76.8 35.190624Q76.2375 33.971874 76.2375 32.378124Q76.2375 30.815624 76.75313 29.55Q77.26875 28.284374 78.3 27.6125Q79.34688 26.940624 80.6125 26.940624Q81.55 26.940624 82.28438 27.346874Q83.01875 27.7375 83.4875 28.3625L83.4875 23.2375L85.22188 23.2375L85.22188 37.55L83.59688 37.55ZM78.03438 32.378124Q78.03438 34.3625 78.87813 35.346874Q79.72188 36.33125 80.8625 36.33125Q82.01875 36.33125 82.81563 35.39375Q83.62813 34.45625 83.62813 32.51875Q83.62813 30.39375 82.8 29.39375Q81.9875 28.39375 80.78438 28.39375Q79.6125 28.39375 78.81563 29.3625Q78.03438 30.315624 78.03438 32.378124Z" fill-rule="nonzero"/></svg>